<svg id="svg" version="1.1" xmlns="http://www.w3.org/2000/svg" xmlns:xlink="http://www.w3.org/1999/xlink" width="400" height="400" viewBox="0, 0, 400,400"><g id="svgg"><path id="path0" d="M114.000 91.600 C 114.000 92.040,113.820 92.400,113.600 92.400 C 113.380 92.400,113.200 92.940,113.200 93.600 C 113.200 94.260,113.020 94.800,112.800 94.800 C 112.580 94.800,112.400 95.340,112.400 96.000 C 112.400 96.660,112.220 97.200,112.000 97.200 C 111.780 97.200,111.600 97.920,111.600 98.800 C 111.600 99.680,111.420 100.400,111.200 100.400 C 110.978 100.400,110.800 101.467,110.800 102.800 L 110.800 105.200 108.400 105.200 C 107.067 105.200,106.000 105.378,106.000 105.600 C 106.000 105.820,105.280 106.000,104.400 106.000 C 103.520 106.000,102.800 106.180,102.800 106.400 C 102.800 106.620,102.260 106.800,101.600 106.800 C 100.940 106.800,100.400 106.980,100.400 107.200 C 100.400 107.420,99.860 107.600,99.200 107.600 C 98.540 107.600,98.000 107.780,98.000 108.000 C 98.000 108.220,97.640 108.400,97.200 108.400 C 96.578 108.400,96.400 108.667,96.400 109.600 C 96.400 110.533,96.578 110.800,97.200 110.800 C 97.640 110.800,98.000 110.980,98.000 111.200 C 98.000 111.420,98.540 111.600,99.200 111.600 C 99.860 111.600,100.400 111.780,100.400 112.000 C 100.400 112.220,100.940 112.400,101.600 112.400 C 102.260 112.400,102.800 112.580,102.800 112.800 C 102.800 113.020,103.520 113.200,104.400 113.200 C 105.280 113.200,106.000 113.380,106.000 113.600 C 106.000 113.822,107.067 114.000,108.400 114.000 L 110.800 114.000 110.800 116.400 C 110.800 117.733,110.978 118.800,111.200 118.800 C 111.420 118.800,111.600 119.520,111.600 120.400 C 111.600 121.280,111.780 122.000,112.000 122.000 C 112.220 122.000,112.400 122.540,112.400 123.200 C 112.400 123.860,112.580 124.400,112.800 124.400 C 113.020 124.400,113.200 124.940,113.200 125.600 C 113.200 126.260,113.380 126.800,113.600 126.800 C 113.820 126.800,114.000 127.160,114.000 127.600 C 114.000 128.061,114.267 128.400,114.629 128.400 C 115.437 128.400,116.400 127.437,116.400 126.629 C 116.400 126.283,116.580 126.000,116.800 126.000 C 117.020 126.000,117.200 125.460,117.200 124.800 C 117.200 124.140,117.380 123.600,117.600 123.600 C 117.820 123.600,118.000 123.060,118.000 122.400 C 118.000 121.740,118.180 121.200,118.400 121.200 C 118.620 121.200,118.800 120.480,118.800 119.600 C 118.800 118.720,118.980 118.000,119.200 118.000 C 119.420 118.000,119.600 117.100,119.600 116.000 L 119.600 114.000 122.000 114.000 C 123.333 114.000,124.400 113.822,124.400 113.600 C 124.400 113.380,125.120 113.200,126.000 113.200 C 126.880 113.200,127.600 113.020,127.600 112.800 C 127.600 112.580,128.140 112.400,128.800 112.400 C 129.460 112.400,130.000 112.220,130.000 112.000 C 130.000 111.780,130.360 111.600,130.800 111.600 C 131.240 111.600,131.600 111.420,131.600 111.200 C 131.600 110.980,132.140 110.800,132.800 110.800 C 133.867 110.800,134.000 110.667,134.000 109.600 C 134.000 108.533,133.867 108.400,132.800 108.400 C 132.140 108.400,131.600 108.220,131.600 108.000 C 131.600 107.780,131.240 107.600,130.800 107.600 C 130.360 107.600,130.000 107.420,130.000 107.200 C 130.000 106.980,129.280 106.800,128.400 106.800 C 127.520 106.800,126.800 106.620,126.800 106.400 C 126.800 106.180,126.080 106.000,125.200 106.000 C 124.320 106.000,123.600 105.820,123.600 105.600 C 123.600 105.380,122.700 105.200,121.600 105.200 L 119.600 105.200 119.600 103.200 C 119.600 102.100,119.420 101.200,119.200 101.200 C 118.980 101.200,118.800 100.480,118.800 99.600 C 118.800 98.720,118.620 98.000,118.400 98.000 C 118.180 98.000,118.000 97.460,118.000 96.800 C 118.000 96.140,117.820 95.600,117.600 95.600 C 117.380 95.600,117.200 95.060,117.200 94.400 C 117.200 93.740,117.020 93.200,116.800 93.200 C 116.580 93.200,116.400 92.917,116.400 92.571 C 116.400 91.763,115.437 90.800,114.629 90.800 C 114.267 90.800,114.000 91.139,114.000 91.600 M272.500 96.620 L 270.800 98.381 270.800 101.791 C 270.800 103.797,270.965 105.200,271.200 105.200 C 271.420 105.200,271.600 105.478,271.600 105.818 C 271.600 106.790,273.459 108.400,274.582 108.400 C 275.142 108.400,275.600 108.580,275.600 108.800 C 275.600 109.022,276.667 109.200,278.000 109.200 C 279.333 109.200,280.400 109.022,280.400 108.800 C 280.400 108.580,280.676 108.400,281.013 108.400 C 281.809 108.400,284.400 105.809,284.400 105.013 C 284.400 104.676,284.580 104.400,284.800 104.400 C 285.022 104.400,285.200 103.333,285.200 102.000 C 285.200 100.667,285.022 99.600,284.800 99.600 C 284.580 99.600,284.400 99.240,284.400 98.800 C 284.400 98.360,284.220 98.000,284.000 98.000 C 283.780 98.000,283.600 97.717,283.600 97.371 C 283.600 96.563,282.637 95.600,281.829 95.600 C 281.483 95.600,281.200 95.420,281.200 95.200 C 281.200 94.962,279.786 94.812,277.700 94.829 L 274.200 94.858 272.500 96.620 M204.000 109.451 C 201.562 109.558,195.420 110.192,192.500 110.638 L 191.200 110.836 191.200 116.340 C 191.200 125.299,189.639 126.865,178.400 129.180 C 174.422 130.000,169.199 131.611,167.486 132.546 C 162.185 135.441,159.275 137.900,158.389 140.229 C 155.029 149.068,171.863 154.035,185.200 148.140 C 201.597 140.893,211.287 128.532,211.177 115.000 C 211.131 109.301,210.931 109.146,204.000 109.451 M87.600 131.600 C 87.600 132.040,87.420 132.400,87.200 132.400 C 86.980 132.400,86.800 132.760,86.800 133.200 C 86.800 133.640,86.620 134.000,86.400 134.000 C 86.180 134.000,86.000 134.720,86.000 135.600 C 86.000 136.480,85.820 137.200,85.600 137.200 C 85.380 137.200,85.200 138.100,85.200 139.200 L 85.200 141.200 83.200 141.200 C 82.100 141.200,81.200 141.380,81.200 141.600 C 81.200 141.820,80.480 142.000,79.600 142.000 C 78.720 142.000,78.000 142.180,78.000 142.400 C 78.000 142.620,77.640 142.800,77.200 142.800 C 76.760 142.800,76.400 142.980,76.400 143.200 C 76.400 143.420,76.040 143.600,75.600 143.600 C 75.139 143.600,74.800 143.867,74.800 144.229 C 74.800 145.037,75.763 146.000,76.571 146.000 C 76.917 146.000,77.200 146.180,77.200 146.400 C 77.200 146.620,77.740 146.800,78.400 146.800 C 79.060 146.800,79.600 146.980,79.600 147.200 C 79.600 147.420,80.500 147.600,81.600 147.600 C 82.700 147.600,83.600 147.780,83.600 148.000 C 83.600 148.220,83.960 148.400,84.400 148.400 C 85.067 148.400,85.200 148.667,85.200 150.000 C 85.200 150.880,85.380 151.600,85.600 151.600 C 85.820 151.600,86.000 152.320,86.000 153.200 C 86.000 154.080,86.180 154.800,86.400 154.800 C 86.620 154.800,86.800 155.263,86.800 155.829 C 86.800 157.141,87.659 158.000,88.971 158.000 C 89.848 158.000,90.000 157.822,90.000 156.800 C 90.000 156.140,90.180 155.600,90.400 155.600 C 90.620 155.600,90.800 155.060,90.800 154.400 C 90.800 153.740,90.980 153.200,91.200 153.200 C 91.420 153.200,91.600 152.382,91.600 151.382 C 91.600 148.860,92.860 147.600,95.382 147.600 C 96.382 147.600,97.200 147.420,97.200 147.200 C 97.200 146.980,97.740 146.800,98.400 146.800 C 99.060 146.800,99.600 146.620,99.600 146.400 C 99.600 146.180,100.140 146.000,100.800 146.000 C 101.822 146.000,102.000 145.848,102.000 144.971 C 102.000 143.659,101.141 142.800,99.829 142.800 C 99.263 142.800,98.800 142.620,98.800 142.400 C 98.800 142.180,98.080 142.000,97.200 142.000 C 96.320 142.000,95.600 141.820,95.600 141.600 C 95.600 141.380,94.880 141.200,94.000 141.200 C 92.667 141.200,92.400 141.067,92.400 140.400 C 92.400 139.960,92.220 139.600,92.000 139.600 C 91.780 139.600,91.600 138.700,91.600 137.600 C 91.600 136.500,91.420 135.600,91.200 135.600 C 90.980 135.600,90.800 135.060,90.800 134.400 C 90.800 133.740,90.620 133.200,90.400 133.200 C 90.180 133.200,90.000 132.917,90.000 132.571 C 90.000 131.763,89.037 130.800,88.229 130.800 C 87.867 130.800,87.600 131.139,87.600 131.600 M276.600 144.673 C 251.719 161.637,239.938 177.595,248.812 182.314 C 249.927 182.907,254.883 182.667,256.722 181.932 C 257.315 181.694,258.160 181.355,258.600 181.177 C 260.048 180.590,266.975 177.205,268.200 176.485 C 268.860 176.097,270.300 175.255,271.400 174.613 C 277.123 171.274,292.819 159.836,292.777 159.035 C 292.716 157.872,285.570 147.447,282.522 144.073 L 280.600 141.946 276.600 144.673 M310.733 165.800 C 302.266 181.901,281.063 201.193,254.600 216.872 C 245.598 222.205,245.573 222.219,235.800 227.118 C 225.886 232.088,225.732 232.159,217.200 235.706 C 204.694 240.905,199.915 242.597,185.800 246.818 C 184.629 247.168,181.209 248.100,178.400 248.836 C 175.972 249.471,166.732 251.529,163.400 252.176 C 161.640 252.518,159.300 252.972,158.200 253.186 C 157.100 253.400,154.760 253.758,153.000 253.983 C 151.240 254.208,148.398 254.574,146.684 254.796 C 137.082 256.041,119.177 255.085,109.811 252.827 C 104.732 251.603,114.494 257.265,122.057 259.929 C 139.197 265.968,160.881 266.448,186.200 261.350 C 189.060 260.774,191.850 260.214,192.400 260.105 C 206.467 257.325,235.173 245.942,248.602 237.818 C 280.921 218.269,301.247 197.353,309.455 175.200 C 311.933 168.512,312.849 161.776,310.733 165.800 M172.600 183.536 C 170.352 184.745,168.028 186.308,163.515 189.645 C 156.965 194.489,152.884 195.537,144.485 194.532 C 127.455 192.495,123.070 193.605,115.070 201.977 L 112.000 205.191 112.000 210.019 C 112.000 215.081,112.312 217.863,113.657 224.800 C 114.565 229.479,114.675 229.733,115.294 228.597 C 118.524 222.674,128.014 216.713,135.400 215.967 C 137.380 215.767,140.080 215.431,141.400 215.220 C 142.720 215.009,144.520 214.731,145.400 214.603 C 161.424 212.269,175.711 203.243,181.495 191.800 C 184.934 184.997,179.414 179.869,172.600 183.536 M247.758 263.835 C 229.251 267.864,213.897 283.048,225.284 286.059 C 228.039 286.788,236.725 285.441,241.000 283.622 C 247.148 281.006,247.635 280.759,251.102 278.499 C 265.143 269.346,263.124 260.490,247.758 263.835 M90.800 272.000 C 90.800 272.220,90.480 272.400,90.088 272.400 C 89.697 272.400,89.117 272.760,88.800 273.200 C 88.483 273.640,87.903 274.000,87.512 274.000 C 87.096 274.000,86.800 274.296,86.800 274.712 C 86.800 275.103,86.440 275.683,86.000 276.000 C 85.287 276.514,85.200 277.035,85.200 280.800 C 85.200 284.565,85.287 285.086,86.000 285.600 C 86.440 285.917,86.800 286.497,86.800 286.888 C 86.800 287.304,87.096 287.600,87.512 287.600 C 87.903 287.600,88.483 287.960,88.800 288.400 C 89.139 288.870,89.835 289.200,90.488 289.200 C 91.100 289.200,91.600 289.380,91.600 289.600 C 91.600 289.822,92.667 290.000,94.000 290.000 C 95.333 290.000,96.400 289.822,96.400 289.600 C 96.400 289.380,96.900 289.200,97.512 289.200 C 98.165 289.200,98.861 288.870,99.200 288.400 C 99.517 287.960,100.097 287.600,100.488 287.600 C 100.904 287.600,101.200 287.304,101.200 286.888 C 101.200 286.497,101.560 285.917,102.000 285.600 C 102.713 285.086,102.800 284.565,102.800 280.800 C 102.800 277.035,102.713 276.514,102.000 276.000 C 101.560 275.683,101.200 275.103,101.200 274.712 C 101.200 274.296,100.904 274.000,100.488 274.000 C 100.097 274.000,99.517 273.640,99.200 273.200 C 98.883 272.760,98.303 272.400,97.912 272.400 C 97.520 272.400,97.200 272.220,97.200 272.000 C 97.200 271.767,95.867 271.600,94.000 271.600 C 92.133 271.600,90.800 271.767,90.800 272.000 M121.200 288.000 C 121.200 288.220,120.840 288.400,120.400 288.400 C 119.867 288.400,119.600 288.667,119.600 289.200 C 119.600 289.640,119.420 290.000,119.200 290.000 C 118.971 290.000,118.800 291.200,118.800 292.800 C 118.800 294.400,118.971 295.600,119.200 295.600 C 119.420 295.600,119.600 295.960,119.600 296.400 C 119.600 296.933,119.867 297.200,120.400 297.200 C 120.840 297.200,121.200 297.380,121.200 297.600 C 121.200 297.829,122.400 298.000,124.000 298.000 C 125.600 298.000,126.800 297.829,126.800 297.600 C 126.800 297.380,127.083 297.200,127.429 297.200 C 128.373 297.200,129.200 296.186,129.200 295.029 C 129.200 294.463,129.380 294.000,129.600 294.000 C 129.820 294.000,130.000 293.460,130.000 292.800 C 130.000 292.140,129.820 291.600,129.600 291.600 C 129.380 291.600,129.200 291.142,129.200 290.582 C 129.200 288.555,127.604 287.600,124.218 287.600 C 122.473 287.600,121.200 287.769,121.200 288.000 " stroke="none" fill="#faea25" fill-rule="evenodd"></path><path id="path1" d="M211.293 111.490 C 214.321 130.117,193.735 151.200,172.520 151.200 C 151.856 151.200,153.373 134.686,174.500 129.636 C 186.509 126.767,187.189 126.513,189.102 124.193 C 191.332 121.487,191.789 110.634,189.657 111.015 C 184.951 111.855,176.975 114.098,173.400 115.585 C 164.202 119.414,154.369 125.036,148.604 129.763 C 147.506 130.663,146.066 131.846,145.404 132.391 C 141.997 135.196,133.593 144.080,131.623 146.957 C 131.306 147.421,130.931 147.890,130.789 148.000 C 130.426 148.283,125.833 155.177,124.619 157.261 C 116.943 170.441,112.412 185.281,111.732 199.468 L 111.472 204.888 115.036 201.317 C 122.794 193.544,127.263 191.993,137.800 193.418 C 152.593 195.419,155.800 194.765,165.221 187.823 C 174.631 180.890,178.525 180.105,182.150 184.413 C 187.640 190.938,170.707 208.544,154.420 213.245 C 150.933 214.251,145.999 215.082,134.830 216.544 C 127.807 217.463,122.176 220.878,116.930 227.400 C 115.869 228.720,114.874 229.857,114.721 229.926 C 114.567 229.996,114.593 230.446,114.779 230.926 C 114.965 231.407,115.340 232.610,115.612 233.600 C 117.092 238.978,120.310 246.888,121.505 248.083 C 123.187 249.765,146.566 248.720,159.000 246.407 C 160.320 246.161,162.390 245.791,163.600 245.585 C 164.810 245.378,166.520 245.049,167.400 244.853 C 168.280 244.657,170.440 244.189,172.200 243.814 C 175.079 243.200,177.091 242.692,181.100 241.565 C 181.815 241.364,182.985 241.037,183.700 240.837 C 185.731 240.269,189.173 239.219,191.800 238.364 C 193.120 237.934,194.830 237.394,195.600 237.163 C 197.020 236.737,200.739 235.398,202.200 234.787 C 202.640 234.603,203.720 234.224,204.600 233.945 C 205.480 233.665,206.371 233.293,206.580 233.118 C 206.789 232.943,207.189 232.800,207.468 232.800 C 207.748 232.800,208.930 232.364,210.095 231.831 C 211.260 231.298,213.186 230.478,214.375 230.010 C 215.563 229.542,217.315 228.808,218.268 228.379 C 220.657 227.305,223.248 226.154,225.500 225.168 C 229.170 223.561,239.835 218.205,243.132 216.312 C 244.964 215.261,246.526 214.400,246.602 214.400 C 246.679 214.400,248.208 213.500,250.000 212.400 C 251.792 211.300,253.339 210.400,253.437 210.400 C 253.628 210.400,267.801 200.876,270.800 198.732 C 280.204 192.011,290.805 182.136,297.750 173.627 C 299.070 172.010,299.015 171.384,297.200 167.357 C 294.313 160.952,293.369 159.329,292.852 159.882 C 289.452 163.522,271.785 175.323,263.600 179.422 C 244.206 189.135,238.661 178.461,254.579 162.055 C 260.541 155.910,275.658 143.869,279.889 141.896 C 280.742 141.499,280.660 141.361,277.889 138.507 C 268.487 128.825,257.550 121.554,243.400 115.581 C 242.330 115.129,235.805 113.023,233.800 112.482 C 228.347 111.011,220.859 109.817,214.559 109.413 L 210.918 109.180 211.293 111.490 M303.789 198.915 C 303.563 199.182,302.939 200.030,302.401 200.800 C 292.907 214.399,272.610 231.543,252.200 243.203 C 251.540 243.580,250.010 244.478,248.800 245.199 C 245.352 247.254,232.499 253.600,231.786 253.600 C 231.679 253.600,230.738 253.981,229.696 254.447 C 228.653 254.912,227.260 255.528,226.600 255.815 C 221.972 257.830,212.075 261.452,208.500 262.441 C 207.785 262.638,206.615 262.970,205.900 263.177 C 192.580 267.045,183.693 268.855,170.200 270.451 C 163.745 271.214,149.398 271.311,142.633 270.636 C 139.131 270.287,136.173 270.093,136.060 270.207 C 135.854 270.413,143.138 277.742,145.404 279.608 C 149.802 283.231,150.931 284.093,153.762 285.990 C 161.646 291.272,169.969 295.416,177.600 297.859 C 183.321 299.691,185.152 300.161,190.400 301.149 C 191.610 301.377,193.770 301.791,195.200 302.069 C 198.700 302.750,217.679 302.767,221.100 302.093 C 222.475 301.822,224.725 301.405,226.100 301.167 C 230.063 300.481,232.421 299.943,235.000 299.135 C 236.320 298.721,238.030 298.193,238.800 297.962 C 263.578 290.522,286.926 268.930,297.800 243.400 C 298.175 242.520,298.636 241.440,298.824 241.000 C 299.254 239.996,301.186 234.204,301.626 232.600 C 303.643 225.249,304.562 219.742,305.167 211.400 C 305.389 208.327,305.400 204.891,305.193 203.000 C 305.001 201.240,304.833 199.485,304.822 199.100 C 304.797 198.293,304.380 198.218,303.789 198.915 M258.360 263.431 C 270.021 268.096,245.962 286.563,228.203 286.578 C 211.052 286.592,226.952 267.308,247.149 263.598 C 248.387 263.370,250.210 263.018,251.200 262.816 C 253.375 262.371,256.350 262.626,258.360 263.431 " stroke="none" fill="#6b3bb3" fill-rule="evenodd"></path><path id="path2" d="M203.600 102.400 C 203.600 102.643,201.808 102.800,199.024 102.800 C 196.404 102.800,194.342 102.971,194.200 103.200 C 194.064 103.420,192.703 103.600,191.176 103.600 C 189.592 103.600,188.400 103.772,188.400 104.000 C 188.400 104.220,187.680 104.400,186.800 104.400 C 185.920 104.400,185.200 104.580,185.200 104.800 C 185.200 105.020,184.480 105.200,183.600 105.200 C 182.720 105.200,182.000 105.380,182.000 105.600 C 182.000 105.820,181.280 106.000,180.400 106.000 C 179.520 106.000,178.800 106.180,178.800 106.400 C 178.800 106.620,178.260 106.800,177.600 106.800 C 176.940 106.800,176.400 106.980,176.400 107.200 C 176.400 107.420,175.860 107.600,175.200 107.600 C 174.540 107.600,174.000 107.780,174.000 108.000 C 174.000 108.220,173.460 108.400,172.800 108.400 C 172.140 108.400,171.600 108.580,171.600 108.800 C 171.600 109.020,171.240 109.200,170.800 109.200 C 170.360 109.200,170.000 109.380,170.000 109.600 C 170.000 109.820,169.460 110.000,168.800 110.000 C 168.140 110.000,167.600 110.180,167.600 110.400 C 167.600 110.620,167.240 110.800,166.800 110.800 C 166.360 110.800,166.000 110.980,166.000 111.200 C 166.000 111.420,165.640 111.600,165.200 111.600 C 164.760 111.600,164.400 111.780,164.400 112.000 C 164.400 112.220,164.040 112.400,163.600 112.400 C 163.160 112.400,162.800 112.580,162.800 112.800 C 162.800 113.020,162.440 113.200,162.000 113.200 C 161.560 113.200,161.200 113.380,161.200 113.600 C 161.200 113.820,160.840 114.000,160.400 114.000 C 159.960 114.000,159.600 114.180,159.600 114.400 C 159.600 114.620,159.240 114.800,158.800 114.800 C 158.360 114.800,158.000 114.980,158.000 115.200 C 158.000 115.420,157.640 115.600,157.200 115.600 C 156.760 115.600,156.400 115.780,156.400 116.000 C 156.400 116.220,156.164 116.400,155.875 116.400 C 155.587 116.400,154.964 116.760,154.492 117.200 C 154.020 117.640,153.396 118.000,153.105 118.000 C 152.814 118.000,152.317 118.360,152.000 118.800 C 151.683 119.240,151.143 119.600,150.800 119.600 C 150.457 119.600,149.917 119.960,149.600 120.400 C 149.283 120.840,148.775 121.200,148.472 121.200 C 148.169 121.200,147.417 121.740,146.800 122.400 C 146.183 123.060,145.467 123.600,145.208 123.600 C 144.949 123.600,144.046 124.320,143.200 125.200 C 142.354 126.080,141.467 126.800,141.228 126.800 C 140.664 126.800,129.200 138.258,129.200 138.823 C 129.200 139.059,128.300 140.129,127.200 141.200 C 126.100 142.271,125.200 143.358,125.200 143.614 C 125.200 143.870,124.660 144.583,124.000 145.200 C 123.340 145.817,122.800 146.569,122.800 146.872 C 122.800 147.175,122.440 147.683,122.000 148.000 C 121.560 148.317,121.200 148.814,121.200 149.105 C 121.200 149.396,120.840 150.020,120.400 150.492 C 119.960 150.964,119.600 151.587,119.600 151.875 C 119.600 152.164,119.420 152.400,119.200 152.400 C 118.980 152.400,118.800 152.760,118.800 153.200 C 118.800 153.640,118.620 154.000,118.400 154.000 C 118.180 154.000,118.000 154.278,118.000 154.617 C 118.000 154.956,117.640 155.620,117.200 156.092 C 116.760 156.564,116.400 157.187,116.400 157.475 C 116.400 157.764,116.220 158.000,116.000 158.000 C 115.780 158.000,115.600 158.360,115.600 158.800 C 115.600 159.240,115.420 159.600,115.200 159.600 C 114.980 159.600,114.800 159.960,114.800 160.400 C 114.800 160.840,114.620 161.200,114.400 161.200 C 114.180 161.200,114.000 161.740,114.000 162.400 C 114.000 163.060,113.820 163.600,113.600 163.600 C 113.380 163.600,113.200 163.960,113.200 164.400 C 113.200 164.840,113.020 165.200,112.800 165.200 C 112.580 165.200,112.400 165.560,112.400 166.000 C 112.400 166.440,112.220 166.800,112.000 166.800 C 111.780 166.800,111.600 167.340,111.600 168.000 C 111.600 168.660,111.420 169.200,111.200 169.200 C 110.980 169.200,110.800 169.560,110.800 170.000 C 110.800 170.440,110.620 170.800,110.400 170.800 C 110.180 170.800,110.000 171.340,110.000 172.000 C 110.000 172.660,109.820 173.200,109.600 173.200 C 109.380 173.200,109.200 173.920,109.200 174.800 C 109.200 175.680,109.020 176.400,108.800 176.400 C 108.580 176.400,108.400 176.940,108.400 177.600 C 108.400 178.260,108.220 178.800,108.000 178.800 C 107.780 178.800,107.600 179.520,107.600 180.400 C 107.600 181.280,107.420 182.000,107.200 182.000 C 106.980 182.000,106.800 182.900,106.800 184.000 C 106.800 185.100,106.620 186.000,106.400 186.000 C 106.180 186.000,106.000 186.279,106.000 186.619 C 106.000 186.960,104.740 188.481,103.200 190.000 C 101.660 191.519,100.400 192.962,100.400 193.207 C 100.400 193.452,99.500 194.529,98.400 195.600 C 97.300 196.671,96.400 197.758,96.400 198.014 C 96.400 198.270,95.860 198.983,95.200 199.600 C 94.540 200.217,94.000 200.969,94.000 201.272 C 94.000 201.575,93.640 202.083,93.200 202.400 C 92.760 202.717,92.400 203.297,92.400 203.688 C 92.400 204.080,92.220 204.400,92.000 204.400 C 91.780 204.400,91.600 204.760,91.600 205.200 C 91.600 205.640,91.420 206.000,91.200 206.000 C 90.980 206.000,90.800 206.320,90.800 206.712 C 90.800 207.103,90.440 207.683,90.000 208.000 C 89.560 208.317,89.200 208.897,89.200 209.288 C 89.200 209.680,89.020 210.000,88.800 210.000 C 88.580 210.000,88.400 210.540,88.400 211.200 C 88.400 211.860,88.220 212.400,88.000 212.400 C 87.780 212.400,87.600 212.760,87.600 213.200 C 87.600 213.640,87.420 214.000,87.200 214.000 C 86.980 214.000,86.800 214.540,86.800 215.200 C 86.800 215.860,86.620 216.400,86.400 216.400 C 86.180 216.400,86.000 217.120,86.000 218.000 C 86.000 218.880,85.820 219.600,85.600 219.600 C 85.349 219.600,85.200 222.133,85.200 226.400 C 85.200 230.667,85.349 233.200,85.600 233.200 C 85.820 233.200,86.000 233.740,86.000 234.400 C 86.000 235.060,86.180 235.600,86.400 235.600 C 86.620 235.600,86.800 235.960,86.800 236.400 C 86.800 236.840,86.980 237.200,87.200 237.200 C 87.420 237.200,87.600 237.560,87.600 238.000 C 87.600 238.440,87.780 238.800,88.000 238.800 C 88.220 238.800,88.400 239.340,88.400 240.000 C 88.400 240.660,88.580 241.200,88.800 241.200 C 89.020 241.200,89.200 241.560,89.200 242.000 C 89.200 242.440,89.380 242.800,89.600 242.800 C 89.820 242.800,90.000 243.120,90.000 243.512 C 90.000 243.903,90.360 244.483,90.800 244.800 C 91.240 245.117,91.600 245.657,91.600 246.000 C 91.600 246.343,91.960 246.883,92.400 247.200 C 92.840 247.517,93.200 248.009,93.200 248.293 C 93.200 248.966,102.234 258.000,102.907 258.000 C 103.191 258.000,103.683 258.360,104.000 258.800 C 104.317 259.240,104.857 259.600,105.200 259.600 C 105.543 259.600,106.083 259.960,106.400 260.400 C 106.717 260.840,107.297 261.200,107.688 261.200 C 108.080 261.200,108.400 261.380,108.400 261.600 C 108.400 261.820,108.760 262.000,109.200 262.000 C 109.640 262.000,110.000 262.180,110.000 262.400 C 110.000 262.620,110.360 262.800,110.800 262.800 C 111.240 262.800,111.600 262.980,111.600 263.200 C 111.600 263.420,111.960 263.600,112.400 263.600 C 112.840 263.600,113.200 263.780,113.200 264.000 C 113.200 264.220,113.560 264.400,114.000 264.400 C 114.440 264.400,114.800 264.580,114.800 264.800 C 114.800 265.020,115.340 265.200,116.000 265.200 C 116.660 265.200,117.200 265.380,117.200 265.600 C 117.200 265.820,117.560 266.000,118.000 266.000 C 118.440 266.000,118.800 266.180,118.800 266.400 C 118.800 266.620,119.340 266.800,120.000 266.800 C 120.660 266.800,121.200 266.980,121.200 267.200 C 121.200 267.420,121.833 267.600,122.607 267.600 C 123.996 267.600,129.200 272.017,129.200 273.196 C 129.200 273.744,140.674 285.200,141.223 285.200 C 141.459 285.200,142.529 286.100,143.600 287.200 C 144.671 288.300,145.790 289.200,146.086 289.200 C 146.381 289.200,146.883 289.560,147.200 290.000 C 147.517 290.440,148.057 290.800,148.400 290.800 C 148.743 290.800,149.283 291.160,149.600 291.600 C 149.917 292.040,150.457 292.400,150.800 292.400 C 151.143 292.400,151.683 292.760,152.000 293.200 C 152.317 293.640,152.857 294.000,153.200 294.000 C 153.543 294.000,154.083 294.360,154.400 294.800 C 154.717 295.240,155.297 295.600,155.688 295.600 C 156.080 295.600,156.400 295.780,156.400 296.000 C 156.400 296.220,156.760 296.400,157.200 296.400 C 157.640 296.400,158.000 296.580,158.000 296.800 C 158.000 297.020,158.360 297.200,158.800 297.200 C 159.240 297.200,159.600 297.380,159.600 297.600 C 159.600 297.820,159.960 298.000,160.400 298.000 C 160.840 298.000,161.200 298.180,161.200 298.400 C 161.200 298.620,161.560 298.800,162.000 298.800 C 162.440 298.800,162.800 298.980,162.800 299.200 C 162.800 299.420,163.160 299.600,163.600 299.600 C 164.040 299.600,164.400 299.780,164.400 300.000 C 164.400 300.220,164.760 300.400,165.200 300.400 C 165.640 300.400,166.000 300.580,166.000 300.800 C 166.000 301.020,166.360 301.200,166.800 301.200 C 167.240 301.200,167.600 301.380,167.600 301.600 C 167.600 301.820,167.960 302.000,168.400 302.000 C 168.840 302.000,169.200 302.180,169.200 302.400 C 169.200 302.620,169.740 302.800,170.400 302.800 C 171.060 302.800,171.600 302.980,171.600 303.200 C 171.600 303.420,172.140 303.600,172.800 303.600 C 173.460 303.600,174.000 303.780,174.000 304.000 C 174.000 304.220,174.540 304.400,175.200 304.400 C 175.860 304.400,176.400 304.580,176.400 304.800 C 176.400 305.020,176.940 305.200,177.600 305.200 C 178.260 305.200,178.800 305.380,178.800 305.600 C 178.800 305.820,179.340 306.000,180.000 306.000 C 180.660 306.000,181.200 306.180,181.200 306.400 C 181.200 306.620,181.920 306.800,182.800 306.800 C 183.680 306.800,184.400 306.980,184.400 307.200 C 184.400 307.420,185.300 307.600,186.400 307.600 C 187.500 307.600,188.400 307.780,188.400 308.000 C 188.400 308.229,189.600 308.400,191.200 308.400 C 192.800 308.400,194.000 308.571,194.000 308.800 C 194.000 309.042,195.725 309.200,198.376 309.200 C 200.863 309.200,202.860 309.373,203.000 309.600 C 203.331 310.136,213.200 310.136,213.200 309.600 C 213.200 309.358,214.933 309.200,217.600 309.200 C 220.267 309.200,222.000 309.042,222.000 308.800 C 222.000 308.567,223.333 308.400,225.200 308.400 C 227.067 308.400,228.400 308.233,228.400 308.000 C 228.400 307.780,229.120 307.600,230.000 307.600 C 230.880 307.600,231.600 307.420,231.600 307.200 C 231.600 306.980,232.320 306.800,233.200 306.800 C 234.080 306.800,234.800 306.620,234.800 306.400 C 234.800 306.180,235.520 306.000,236.400 306.000 C 237.280 306.000,238.000 305.820,238.000 305.600 C 238.000 305.380,238.540 305.200,239.200 305.200 C 239.860 305.200,240.400 305.020,240.400 304.800 C 240.400 304.580,240.940 304.400,241.600 304.400 C 242.260 304.400,242.800 304.220,242.800 304.000 C 242.800 303.780,243.340 303.600,244.000 303.600 C 244.660 303.600,245.200 303.420,245.200 303.200 C 245.200 302.980,245.740 302.800,246.400 302.800 C 247.060 302.800,247.600 302.620,247.600 302.400 C 247.600 302.180,247.960 302.000,248.400 302.000 C 248.840 302.000,249.200 301.820,249.200 301.600 C 249.200 301.380,249.560 301.200,250.000 301.200 C 250.440 301.200,250.800 301.020,250.800 300.800 C 250.800 300.580,251.160 300.400,251.600 300.400 C 252.040 300.400,252.400 300.220,252.400 300.000 C 252.400 299.780,252.760 299.600,253.200 299.600 C 253.640 299.600,254.000 299.420,254.000 299.200 C 254.000 298.980,254.360 298.800,254.800 298.800 C 255.240 298.800,255.600 298.620,255.600 298.400 C 255.600 298.180,255.960 298.000,256.400 298.000 C 256.840 298.000,257.200 297.820,257.200 297.600 C 257.200 297.380,257.560 297.200,258.000 297.200 C 258.440 297.200,258.800 297.020,258.800 296.800 C 258.800 296.580,259.120 296.400,259.512 296.400 C 259.903 296.400,260.483 296.040,260.800 295.600 C 261.117 295.160,261.697 294.800,262.088 294.800 C 262.480 294.800,262.800 294.620,262.800 294.400 C 262.800 294.180,263.120 294.000,263.512 294.000 C 263.903 294.000,264.483 293.640,264.800 293.200 C 265.117 292.760,265.657 292.400,266.000 292.400 C 266.343 292.400,266.883 292.040,267.200 291.600 C 267.517 291.160,268.057 290.800,268.400 290.800 C 268.743 290.800,269.283 290.440,269.600 290.000 C 269.917 289.560,270.419 289.200,270.714 289.200 C 271.010 289.200,272.129 288.300,273.200 287.200 C 274.271 286.100,275.341 285.200,275.577 285.200 C 276.138 285.200,287.600 273.738,287.600 273.177 C 287.600 272.941,288.500 271.871,289.600 270.800 C 290.700 269.729,291.600 268.610,291.600 268.314 C 291.600 268.019,291.960 267.517,292.400 267.200 C 292.840 266.883,293.200 266.375,293.200 266.072 C 293.200 265.769,293.740 265.017,294.400 264.400 C 295.060 263.783,295.600 262.991,295.600 262.640 C 295.600 262.288,295.780 262.000,296.000 262.000 C 296.220 262.000,296.400 261.680,296.400 261.288 C 296.400 260.897,296.760 260.317,297.200 260.000 C 297.640 259.683,298.000 259.103,298.000 258.712 C 298.000 258.320,298.180 258.000,298.400 258.000 C 298.620 258.000,298.800 257.640,298.800 257.200 C 298.800 256.760,298.980 256.400,299.200 256.400 C 299.420 256.400,299.600 256.040,299.600 255.600 C 299.600 255.160,299.780 254.800,300.000 254.800 C 300.220 254.800,300.400 254.522,300.400 254.183 C 300.400 253.844,300.760 253.180,301.200 252.708 C 301.640 252.236,302.000 251.433,302.000 250.925 C 302.000 250.416,302.180 250.000,302.400 250.000 C 302.620 250.000,302.800 249.640,302.800 249.200 C 302.800 248.760,302.980 248.400,303.200 248.400 C 303.420 248.400,303.600 248.040,303.600 247.600 C 303.600 247.160,303.780 246.800,304.000 246.800 C 304.220 246.800,304.400 246.440,304.400 246.000 C 304.400 245.560,304.580 245.200,304.800 245.200 C 305.020 245.200,305.200 244.660,305.200 244.000 C 305.200 243.340,305.380 242.800,305.600 242.800 C 305.820 242.800,306.000 242.260,306.000 241.600 C 306.000 240.940,306.180 240.400,306.400 240.400 C 306.620 240.400,306.800 239.860,306.800 239.200 C 306.800 238.540,306.980 238.000,307.200 238.000 C 307.420 238.000,307.600 237.460,307.600 236.800 C 307.600 236.140,307.780 235.600,308.000 235.600 C 308.220 235.600,308.400 235.060,308.400 234.400 C 308.400 233.740,308.580 233.200,308.800 233.200 C 309.020 233.200,309.200 232.480,309.200 231.600 C 309.200 230.720,309.380 230.000,309.600 230.000 C 309.820 230.000,310.000 229.100,310.000 228.000 C 310.000 226.900,310.180 226.000,310.400 226.000 C 310.622 226.000,310.800 224.933,310.800 223.600 C 310.800 222.267,310.978 221.200,311.200 221.200 C 311.440 221.200,311.600 219.600,311.600 217.200 C 311.600 214.800,311.760 213.200,312.000 213.200 C 312.249 213.200,312.400 210.933,312.400 207.200 C 312.400 203.467,312.249 201.200,312.000 201.200 C 311.758 201.200,311.600 199.467,311.600 196.800 C 311.600 194.133,311.442 192.400,311.200 192.400 C 310.980 192.400,310.800 191.680,310.800 190.800 C 310.800 189.920,310.980 189.200,311.200 189.200 C 311.420 189.200,311.600 188.840,311.600 188.400 C 311.600 187.960,311.780 187.600,312.000 187.600 C 312.220 187.600,312.400 187.240,312.400 186.800 C 312.400 186.360,312.580 186.000,312.800 186.000 C 313.020 186.000,313.200 185.640,313.200 185.200 C 313.200 184.760,313.380 184.400,313.600 184.400 C 313.820 184.400,314.000 184.040,314.000 183.600 C 314.000 183.160,314.180 182.800,314.400 182.800 C 314.620 182.800,314.800 182.260,314.800 181.600 C 314.800 180.940,314.980 180.400,315.200 180.400 C 315.420 180.400,315.600 179.860,315.600 179.200 C 315.600 178.540,315.780 178.000,316.000 178.000 C 316.220 178.000,316.400 177.640,316.400 177.200 C 316.400 176.760,316.580 176.400,316.800 176.400 C 317.020 176.400,317.200 175.860,317.200 175.200 C 317.200 174.540,317.380 174.000,317.600 174.000 C 317.820 174.000,318.000 173.280,318.000 172.400 C 318.000 171.520,318.180 170.800,318.400 170.800 C 318.620 170.800,318.800 169.900,318.800 168.800 C 318.800 167.700,318.980 166.800,319.200 166.800 C 319.454 166.800,319.600 163.733,319.600 158.400 C 319.600 153.067,319.454 150.000,319.200 150.000 C 318.980 150.000,318.800 149.280,318.800 148.400 C 318.800 147.520,318.620 146.800,318.400 146.800 C 318.180 146.800,318.000 146.080,318.000 145.200 C 318.000 144.320,317.820 143.600,317.600 143.600 C 317.380 143.600,317.200 143.240,317.200 142.800 C 317.200 142.360,317.020 142.000,316.800 142.000 C 316.580 142.000,316.400 141.460,316.400 140.800 C 316.400 140.140,316.220 139.600,316.000 139.600 C 315.780 139.600,315.600 139.161,315.600 138.624 C 315.600 138.087,315.420 137.536,315.200 137.400 C 314.980 137.264,314.800 136.843,314.800 136.465 C 314.800 136.086,314.440 135.517,314.000 135.200 C 313.560 134.883,313.200 134.375,313.200 134.072 C 313.200 133.769,312.660 133.017,312.000 132.400 C 311.340 131.783,310.800 131.075,310.800 130.826 C 310.800 130.237,308.163 127.600,307.574 127.600 C 307.325 127.600,306.617 127.060,306.000 126.400 C 305.383 125.740,304.591 125.200,304.240 125.200 C 303.888 125.200,303.600 125.020,303.600 124.800 C 303.600 124.580,303.240 124.400,302.800 124.400 C 302.360 124.400,302.000 124.220,302.000 124.000 C 302.000 123.780,301.640 123.600,301.200 123.600 C 300.760 123.600,300.400 123.420,300.400 123.200 C 300.400 122.980,300.040 122.800,299.600 122.800 C 299.160 122.800,298.800 122.620,298.800 122.400 C 298.800 122.180,298.260 122.000,297.600 122.000 C 296.940 122.000,296.400 121.820,296.400 121.600 C 296.400 121.380,295.860 121.200,295.200 121.200 C 294.540 121.200,294.000 121.020,294.000 120.800 C 294.000 120.580,293.280 120.400,292.400 120.400 C 291.520 120.400,290.800 120.220,290.800 120.000 C 290.800 119.780,290.080 119.600,289.200 119.600 C 288.320 119.600,287.600 119.420,287.600 119.200 C 287.600 118.971,286.400 118.800,284.800 118.800 C 283.200 118.800,282.000 118.629,282.000 118.400 C 282.000 118.145,278.563 118.000,272.488 118.000 C 263.435 118.000,262.949 117.961,262.400 117.200 C 262.083 116.760,261.503 116.400,261.112 116.400 C 260.720 116.400,260.400 116.220,260.400 116.000 C 260.400 115.780,260.040 115.600,259.600 115.600 C 259.160 115.600,258.800 115.420,258.800 115.200 C 258.800 114.980,258.440 114.800,258.000 114.800 C 257.560 114.800,257.200 114.620,257.200 114.400 C 257.200 114.180,256.840 114.000,256.400 114.000 C 255.960 114.000,255.600 113.820,255.600 113.600 C 255.600 113.380,255.240 113.200,254.800 113.200 C 254.360 113.200,254.000 113.020,254.000 112.800 C 254.000 112.580,253.640 112.400,253.200 112.400 C 252.760 112.400,252.400 112.220,252.400 112.000 C 252.400 111.780,252.040 111.600,251.600 111.600 C 251.160 111.600,250.800 111.420,250.800 111.200 C 250.800 110.980,250.440 110.800,250.000 110.800 C 249.560 110.800,249.200 110.620,249.200 110.400 C 249.200 110.180,248.660 110.000,248.000 110.000 C 247.340 110.000,246.800 109.820,246.800 109.600 C 246.800 109.380,246.440 109.200,246.000 109.200 C 245.560 109.200,245.200 109.020,245.200 108.800 C 245.200 108.580,244.660 108.400,244.000 108.400 C 243.340 108.400,242.800 108.220,242.800 108.000 C 242.800 107.780,242.260 107.600,241.600 107.600 C 240.940 107.600,240.400 107.420,240.400 107.200 C 240.400 106.980,239.860 106.800,239.200 106.800 C 238.540 106.800,238.000 106.620,238.000 106.400 C 238.000 106.180,237.460 106.000,236.800 106.000 C 236.140 106.000,235.600 105.820,235.600 105.600 C 235.600 105.380,234.891 105.200,234.024 105.200 C 233.157 105.200,232.336 105.020,232.200 104.800 C 232.064 104.580,231.153 104.400,230.176 104.400 C 229.199 104.400,228.400 104.220,228.400 104.000 C 228.400 103.771,227.200 103.600,225.600 103.600 C 224.000 103.600,222.800 103.429,222.800 103.200 C 222.800 102.956,220.933 102.800,218.000 102.800 C 215.067 102.800,213.200 102.644,213.200 102.400 C 213.200 102.156,211.333 102.000,208.400 102.000 C 205.467 102.000,203.600 102.156,203.600 102.400 M219.600 109.180 C 224.417 109.733,228.460 110.423,231.800 111.261 C 234.782 112.010,238.997 113.280,239.695 113.641 C 240.077 113.838,240.664 114.000,241.000 114.000 C 241.336 114.000,241.923 114.159,242.305 114.353 C 242.687 114.548,243.450 114.890,244.000 115.114 C 245.392 115.681,250.473 117.965,251.200 118.350 C 261.870 123.999,268.702 128.845,276.354 136.194 C 280.586 140.259,288.400 149.357,288.400 150.220 C 288.400 150.337,288.760 150.820,289.200 151.292 C 289.640 151.764,290.000 152.387,290.000 152.675 C 290.000 152.964,290.180 153.200,290.400 153.200 C 290.620 153.200,290.800 153.393,290.800 153.628 C 290.800 153.863,291.308 154.808,291.928 155.728 C 293.945 158.718,299.600 170.608,299.600 171.858 C 299.600 173.937,284.224 189.414,276.411 195.200 C 275.668 195.750,274.147 196.930,273.030 197.822 C 268.983 201.054,257.650 208.696,252.600 211.599 C 251.940 211.978,250.410 212.880,249.200 213.603 C 247.086 214.866,246.149 215.394,240.400 218.562 C 235.657 221.176,226.109 225.738,219.400 228.596 C 218.740 228.877,217.347 229.488,216.304 229.953 C 215.262 230.419,214.315 230.800,214.200 230.800 C 214.085 230.800,213.138 231.178,212.096 231.640 C 211.053 232.102,209.795 232.642,209.300 232.840 C 208.805 233.038,207.995 233.362,207.500 233.560 C 207.005 233.757,205.970 234.136,205.200 234.400 C 204.430 234.664,203.440 235.026,203.000 235.203 C 199.911 236.448,196.033 237.755,190.000 239.585 C 188.350 240.086,186.640 240.642,186.200 240.820 C 185.760 240.999,184.230 241.442,182.800 241.805 C 181.370 242.167,179.615 242.629,178.900 242.832 C 175.762 243.721,174.477 244.046,172.600 244.428 C 171.500 244.652,169.880 244.990,169.000 245.180 C 152.546 248.734,136.326 250.250,124.820 249.309 L 121.039 249.000 119.999 247.000 C 118.344 243.818,115.967 237.620,114.782 233.400 C 114.597 232.740,114.241 231.480,113.992 230.600 C 111.441 221.581,110.116 203.766,111.315 194.600 C 111.787 190.993,113.088 184.035,113.596 182.400 C 113.767 181.850,114.132 180.590,114.407 179.600 C 115.247 176.577,116.417 173.038,116.819 172.305 C 117.029 171.923,117.200 171.426,117.200 171.201 C 117.200 170.698,118.336 168.137,120.660 163.400 C 131.204 141.907,151.149 123.413,172.700 115.145 C 173.195 114.955,174.005 114.641,174.500 114.448 C 174.995 114.254,176.750 113.692,178.400 113.199 C 180.050 112.707,181.850 112.166,182.400 111.998 C 184.364 111.398,186.637 110.853,189.000 110.414 C 190.320 110.168,192.168 109.795,193.106 109.584 C 194.044 109.373,195.844 109.182,197.106 109.160 C 198.368 109.138,199.850 108.967,200.400 108.779 C 201.619 108.363,214.902 108.640,219.600 109.180 M278.800 125.600 C 278.800 125.829,280.000 126.000,281.600 126.000 C 283.200 126.000,284.400 126.171,284.400 126.400 C 284.400 126.620,285.300 126.800,286.400 126.800 C 287.500 126.800,288.400 126.980,288.400 127.200 C 288.400 127.420,288.940 127.600,289.600 127.600 C 290.260 127.600,290.800 127.780,290.800 128.000 C 290.800 128.220,291.340 128.400,292.000 128.400 C 292.660 128.400,293.200 128.580,293.200 128.800 C 293.200 129.020,293.740 129.200,294.400 129.200 C 295.060 129.200,295.600 129.380,295.600 129.600 C 295.600 129.820,295.960 130.000,296.400 130.000 C 296.840 130.000,297.200 130.180,297.200 130.400 C 297.200 130.620,297.560 130.800,298.000 130.800 C 298.440 130.800,298.800 130.980,298.800 131.200 C 298.800 131.420,299.120 131.600,299.512 131.600 C 299.903 131.600,300.483 131.960,300.800 132.400 C 301.117 132.840,301.612 133.200,301.899 133.200 C 302.578 133.200,306.000 136.622,306.000 137.301 C 306.000 137.588,306.360 138.083,306.800 138.400 C 307.240 138.717,307.600 139.297,307.600 139.688 C 307.600 140.080,307.780 140.400,308.000 140.400 C 308.220 140.400,308.400 140.940,308.400 141.600 C 308.400 142.260,308.580 142.800,308.800 142.800 C 309.042 142.800,309.200 144.533,309.200 147.200 C 309.200 149.867,309.042 151.600,308.800 151.600 C 308.580 151.600,308.400 152.140,308.400 152.800 C 308.400 153.460,308.220 154.000,308.000 154.000 C 307.780 154.000,307.600 154.540,307.600 155.200 C 307.600 155.860,307.420 156.400,307.200 156.400 C 306.980 156.400,306.800 156.940,306.800 157.600 C 306.800 158.260,306.620 158.800,306.400 158.800 C 306.180 158.800,306.000 159.160,306.000 159.600 C 306.000 160.040,305.820 160.400,305.600 160.400 C 305.380 160.400,305.200 160.760,305.200 161.200 C 305.200 161.640,305.020 162.000,304.800 162.000 C 304.580 162.000,304.400 162.360,304.400 162.800 C 304.400 163.333,304.133 163.600,303.600 163.600 C 303.067 163.600,302.800 163.333,302.800 162.800 C 302.800 162.360,302.620 162.000,302.400 162.000 C 302.180 162.000,302.000 161.640,302.000 161.200 C 302.000 160.760,301.820 160.400,301.600 160.400 C 301.380 160.400,301.200 160.040,301.200 159.600 C 301.200 159.160,301.020 158.800,300.800 158.800 C 300.580 158.800,300.400 158.440,300.400 158.000 C 300.400 157.560,300.220 157.200,300.000 157.200 C 299.780 157.200,299.600 156.840,299.600 156.400 C 299.600 155.960,299.420 155.600,299.200 155.600 C 298.980 155.600,298.800 155.240,298.800 154.800 C 298.800 154.360,298.620 154.000,298.400 154.000 C 298.180 154.000,298.000 153.680,298.000 153.288 C 298.000 152.897,297.640 152.317,297.200 152.000 C 296.760 151.683,296.400 151.143,296.400 150.800 C 296.400 150.457,296.040 149.917,295.600 149.600 C 295.160 149.283,294.800 148.743,294.800 148.400 C 294.800 148.057,294.440 147.517,294.000 147.200 C 293.560 146.883,293.200 146.375,293.200 146.072 C 293.200 145.769,292.660 145.017,292.000 144.400 C 291.340 143.783,290.800 143.067,290.800 142.808 C 290.800 142.549,290.080 141.646,289.200 140.800 C 288.320 139.954,287.600 139.067,287.600 138.828 C 287.600 138.262,276.141 126.800,275.575 126.800 C 275.122 126.800,274.000 125.823,274.000 125.429 C 274.000 125.303,275.080 125.200,276.400 125.200 C 277.733 125.200,278.800 125.378,278.800 125.600 M313.080 163.700 C 312.980 165.295,312.682 167.410,312.420 168.400 C 312.157 169.390,311.845 170.787,311.727 171.504 C 311.608 172.221,311.351 172.906,311.156 173.027 C 310.960 173.148,310.800 173.599,310.800 174.029 C 310.800 174.459,310.641 175.123,310.447 175.505 C 310.252 175.887,309.912 176.650,309.689 177.200 C 307.268 183.195,300.350 194.961,297.343 198.200 C 296.934 198.640,295.790 199.990,294.800 201.200 C 288.982 208.312,281.842 215.295,274.235 221.311 C 272.896 222.371,271.530 223.456,271.200 223.724 C 270.870 223.992,269.970 224.656,269.200 225.200 C 268.430 225.744,267.530 226.404,267.200 226.668 C 264.469 228.851,258.213 233.200,257.804 233.200 C 257.672 233.200,256.230 234.100,254.600 235.200 C 252.970 236.300,251.521 237.200,251.380 237.200 C 251.239 237.200,250.646 237.539,250.062 237.953 C 246.559 240.436,229.042 249.009,223.000 251.197 C 222.560 251.356,221.418 251.872,220.462 252.343 C 219.506 252.814,218.392 253.200,217.986 253.200 C 217.580 253.200,217.136 253.380,217.000 253.600 C 216.864 253.820,216.324 254.000,215.800 254.000 C 215.276 254.000,214.736 254.180,214.600 254.400 C 214.464 254.620,213.924 254.800,213.400 254.800 C 212.876 254.800,212.336 254.980,212.200 255.200 C 212.064 255.420,211.524 255.600,211.000 255.600 C 210.476 255.600,209.936 255.780,209.800 256.000 C 209.664 256.220,209.124 256.400,208.600 256.400 C 208.076 256.400,207.536 256.580,207.400 256.800 C 207.264 257.020,206.724 257.200,206.200 257.200 C 205.676 257.200,205.136 257.380,205.000 257.600 C 204.864 257.820,204.234 258.000,203.600 258.000 C 202.966 258.000,202.336 258.180,202.200 258.400 C 202.064 258.620,201.524 258.800,201.000 258.800 C 200.476 258.800,199.948 258.960,199.827 259.156 C 199.706 259.351,199.021 259.613,198.304 259.737 C 197.587 259.861,196.370 260.073,195.600 260.208 C 194.830 260.344,193.840 260.610,193.400 260.800 C 192.960 260.990,191.970 261.255,191.200 261.388 C 190.430 261.521,188.945 261.803,187.900 262.015 C 181.881 263.234,181.597 263.285,174.600 264.388 C 170.373 265.054,159.323 265.734,152.800 265.729 C 144.651 265.723,136.010 264.685,128.400 262.797 C 127.410 262.552,126.103 262.251,125.495 262.129 C 124.887 262.007,124.292 261.749,124.171 261.554 C 124.051 261.359,123.524 261.200,123.000 261.200 C 122.476 261.200,121.936 261.020,121.800 260.800 C 121.664 260.580,121.220 260.400,120.814 260.400 C 120.408 260.400,119.384 260.061,118.538 259.647 C 117.692 259.233,116.100 258.475,115.000 257.963 C 113.900 257.450,112.248 256.529,111.328 255.916 C 110.408 255.302,109.555 254.800,109.431 254.800 C 108.932 254.800,105.400 251.862,105.400 251.447 C 105.400 250.906,106.839 250.962,109.000 251.589 C 119.717 254.697,134.426 255.257,151.800 253.219 C 154.897 252.856,157.213 252.472,161.400 251.629 C 162.500 251.407,164.300 251.048,165.400 250.831 C 168.490 250.222,173.777 249.050,176.400 248.393 C 177.390 248.145,178.787 247.845,179.504 247.727 C 180.221 247.608,180.906 247.351,181.027 247.156 C 181.148 246.960,181.766 246.800,182.400 246.800 C 183.034 246.800,183.664 246.620,183.800 246.400 C 183.936 246.180,184.429 246.000,184.895 246.000 C 185.796 246.000,188.139 245.335,189.295 244.751 C 189.677 244.558,190.431 244.400,190.971 244.400 C 191.511 244.400,192.064 244.220,192.200 244.000 C 192.336 243.780,192.799 243.600,193.229 243.600 C 193.659 243.600,194.323 243.441,194.705 243.246 C 195.087 243.051,196.660 242.502,198.200 242.026 C 199.740 241.549,201.360 241.012,201.800 240.833 C 202.240 240.654,203.050 240.321,203.600 240.094 C 204.150 239.867,205.230 239.464,206.000 239.200 C 206.770 238.936,207.850 238.533,208.400 238.306 C 208.950 238.079,209.805 237.737,210.300 237.546 C 210.795 237.356,211.650 237.020,212.200 236.800 C 212.750 236.580,213.605 236.238,214.100 236.041 C 214.595 235.843,215.675 235.393,216.500 235.041 C 217.325 234.688,218.675 234.112,219.500 233.759 C 220.325 233.407,221.360 232.980,221.800 232.810 C 223.981 231.969,229.933 229.105,237.600 225.208 C 238.590 224.705,240.120 223.934,241.000 223.494 C 244.274 221.860,248.634 219.471,249.662 218.747 C 250.246 218.336,250.843 218.000,250.990 218.000 C 251.136 218.000,252.041 217.460,253.000 216.800 C 253.959 216.140,254.859 215.600,255.000 215.600 C 255.141 215.600,256.041 215.060,257.000 214.400 C 257.959 213.740,258.851 213.200,258.983 213.200 C 259.545 213.200,271.304 205.009,277.066 200.603 C 285.128 194.439,297.169 183.261,300.685 178.675 C 301.392 177.754,302.442 176.460,303.020 175.800 C 303.597 175.140,304.363 174.105,304.721 173.500 C 305.079 172.895,305.514 172.400,305.686 172.400 C 305.859 172.400,306.000 172.158,306.000 171.862 C 306.000 171.566,306.360 170.998,306.800 170.600 C 307.240 170.202,307.600 169.742,307.600 169.579 C 307.600 169.415,308.280 168.138,309.110 166.741 C 310.642 164.164,311.347 162.765,311.751 161.500 C 312.414 159.425,313.261 160.827,313.080 163.700 M305.671 199.004 C 306.110 201.483,306.048 212.177,305.571 215.979 C 304.991 220.612,304.022 226.018,303.183 229.300 C 302.092 233.569,301.894 234.255,301.561 234.895 C 301.362 235.277,301.200 235.941,301.200 236.371 C 301.200 236.801,301.020 237.264,300.800 237.400 C 300.580 237.536,300.400 237.999,300.400 238.429 C 300.400 238.859,300.241 239.523,300.047 239.905 C 299.852 240.287,299.511 241.050,299.289 241.600 C 298.922 242.507,298.432 243.603,296.158 248.600 C 292.459 256.732,283.674 268.790,276.342 275.800 C 273.031 278.966,272.491 279.442,268.596 282.638 C 264.882 285.685,258.075 289.972,252.314 292.893 C 247.272 295.449,245.708 296.175,242.200 297.583 C 241.760 297.760,240.050 298.308,238.400 298.801 C 236.750 299.293,234.950 299.838,234.400 300.010 C 228.338 301.910,216.426 303.559,208.600 303.582 C 201.735 303.601,197.360 303.153,188.800 301.552 C 185.076 300.855,178.419 299.038,177.105 298.359 C 176.723 298.162,176.136 298.000,175.800 298.000 C 175.464 298.000,174.877 297.841,174.495 297.647 C 174.113 297.452,173.350 297.110,172.800 296.886 C 171.408 296.319,166.327 294.035,165.600 293.650 C 154.095 287.560,145.836 281.504,138.100 273.490 C 134.136 269.383,134.309 268.723,139.137 269.532 C 148.142 271.041,161.041 270.925,174.400 269.214 C 175.830 269.031,178.080 268.764,179.400 268.621 C 180.720 268.477,182.430 268.203,183.200 268.010 C 183.970 267.817,185.680 267.453,187.000 267.200 C 188.320 266.947,190.030 266.581,190.800 266.386 C 192.896 265.856,197.213 264.775,198.800 264.382 C 199.570 264.192,200.740 263.924,201.400 263.788 C 202.060 263.651,202.960 263.398,203.400 263.225 C 204.195 262.913,205.348 262.567,208.800 261.608 C 211.002 260.995,212.740 260.430,213.800 259.980 C 214.240 259.793,215.410 259.378,216.400 259.058 C 218.103 258.507,225.203 255.740,227.800 254.615 C 228.460 254.329,229.630 253.823,230.400 253.490 C 234.630 251.661,236.213 250.932,240.400 248.883 C 242.930 247.644,245.900 246.104,247.000 245.460 C 249.055 244.256,250.594 243.370,252.947 242.037 C 253.687 241.617,255.442 240.571,256.847 239.713 C 258.251 238.854,259.842 237.892,260.382 237.576 C 261.492 236.925,264.433 234.939,267.400 232.838 C 269.191 231.569,270.905 230.281,276.200 226.226 C 284.618 219.780,298.745 205.367,303.002 198.883 C 304.391 196.766,305.281 196.807,305.671 199.004 M104.400 206.400 C 104.400 209.600,104.554 211.600,104.800 211.600 C 105.042 211.600,105.200 213.333,105.200 216.000 C 105.200 218.667,105.358 220.400,105.600 220.400 C 105.822 220.400,106.000 221.467,106.000 222.800 C 106.000 224.133,106.178 225.200,106.400 225.200 C 106.620 225.200,106.800 226.100,106.800 227.200 C 106.800 228.300,106.980 229.200,107.200 229.200 C 107.420 229.200,107.600 229.920,107.600 230.800 C 107.600 231.680,107.780 232.400,108.000 232.400 C 108.220 232.400,108.400 233.120,108.400 234.000 C 108.400 234.880,108.580 235.600,108.800 235.600 C 109.020 235.600,109.200 236.140,109.200 236.800 C 109.200 237.460,109.380 238.000,109.600 238.000 C 109.820 238.000,110.000 238.540,110.000 239.200 C 110.000 239.860,110.180 240.400,110.400 240.400 C 110.620 240.400,110.800 240.940,110.800 241.600 C 110.800 242.260,110.980 242.800,111.200 242.800 C 111.420 242.800,111.600 243.160,111.600 243.600 C 111.600 244.040,111.780 244.400,112.000 244.400 C 112.220 244.400,112.400 244.760,112.400 245.200 C 112.400 245.733,112.133 246.000,111.600 246.000 C 111.160 246.000,110.800 245.820,110.800 245.600 C 110.800 245.380,110.260 245.200,109.600 245.200 C 108.940 245.200,108.400 245.020,108.400 244.800 C 108.400 244.580,108.040 244.400,107.600 244.400 C 107.160 244.400,106.800 244.220,106.800 244.000 C 106.800 243.780,106.260 243.600,105.600 243.600 C 104.940 243.600,104.400 243.420,104.400 243.200 C 104.400 242.980,104.080 242.800,103.688 242.800 C 103.297 242.800,102.717 242.440,102.400 242.000 C 102.083 241.560,101.590 241.200,101.305 241.200 C 100.577 241.200,94.800 235.344,94.800 234.606 C 94.800 234.273,94.620 234.000,94.400 234.000 C 94.180 234.000,94.000 233.640,94.000 233.200 C 94.000 232.760,93.820 232.400,93.600 232.400 C 93.380 232.400,93.200 232.040,93.200 231.600 C 93.200 231.160,93.020 230.800,92.800 230.800 C 92.558 230.800,92.400 229.067,92.400 226.400 C 92.400 223.733,92.558 222.000,92.800 222.000 C 93.020 222.000,93.200 221.460,93.200 220.800 C 93.200 220.140,93.380 219.600,93.600 219.600 C 93.820 219.600,94.000 219.060,94.000 218.400 C 94.000 217.740,94.180 217.200,94.400 217.200 C 94.620 217.200,94.800 216.660,94.800 216.000 C 94.800 215.340,94.980 214.800,95.200 214.800 C 95.420 214.800,95.600 214.440,95.600 214.000 C 95.600 213.560,95.780 213.200,96.000 213.200 C 96.220 213.200,96.400 212.840,96.400 212.400 C 96.400 211.960,96.580 211.600,96.800 211.600 C 97.020 211.600,97.200 211.280,97.200 210.888 C 97.200 210.497,97.560 209.917,98.000 209.600 C 98.440 209.283,98.800 208.743,98.800 208.400 C 98.800 208.057,99.160 207.517,99.600 207.200 C 100.040 206.883,100.400 206.375,100.400 206.072 C 100.400 205.769,100.940 205.017,101.600 204.400 C 102.260 203.783,102.800 203.074,102.800 202.823 C 102.800 202.297,103.656 201.238,104.100 201.215 C 104.265 201.207,104.400 203.540,104.400 206.400 " stroke="none" fill="#250563" fill-rule="evenodd"></path><path id="path3" d="M200.800 109.228 C 199.612 109.430,200.902 109.512,204.597 109.467 L 210.194 109.400 210.674 110.800 L 211.155 112.200 211.177 110.980 C 211.190 110.309,210.984 109.544,210.720 109.280 C 210.184 108.744,203.827 108.711,200.800 109.228 M192.605 110.140 C 190.331 110.668,190.250 110.844,190.747 114.200 L 191.102 116.600 191.151 113.718 L 191.200 110.836 192.500 110.640 C 193.215 110.533,194.970 110.280,196.400 110.078 L 199.000 109.711 196.800 109.694 C 195.590 109.685,193.702 109.885,192.605 110.140 M211.334 115.200 C 211.334 116.850,211.405 117.525,211.491 116.700 C 211.578 115.875,211.578 114.525,211.491 113.700 C 211.405 112.875,211.334 113.550,211.334 115.200 M210.655 120.400 C 208.459 132.817,196.760 144.475,181.400 149.550 C 180.080 149.986,179.348 150.356,179.773 150.371 C 183.404 150.505,194.910 144.124,200.434 138.912 C 206.414 133.271,211.642 123.877,211.115 119.719 C 210.996 118.784,210.921 118.895,210.655 120.400 M190.662 121.039 C 190.027 124.381,187.646 126.294,182.200 127.836 C 180.440 128.335,179.437 128.756,179.972 128.771 C 185.025 128.920,191.568 124.046,191.111 120.473 C 190.994 119.561,190.926 119.646,190.662 121.039 M173.600 129.813 C 155.925 134.780,151.906 146.790,166.634 150.626 C 168.903 151.217,176.157 151.355,177.999 150.842 C 178.549 150.689,176.479 150.572,173.399 150.581 C 165.756 150.603,162.697 149.597,159.439 145.990 C 155.774 141.934,158.434 137.490,167.486 132.546 C 168.474 132.006,172.152 130.733,174.600 130.082 C 178.828 128.959,179.042 128.882,178.000 128.869 C 177.450 128.863,175.470 129.287,173.600 129.813 M274.061 145.849 C 256.156 158.418,245.597 170.025,245.601 177.133 C 245.608 186.955,257.307 184.763,277.788 171.102 C 282.731 167.805,293.191 159.782,293.195 159.284 C 293.214 157.241,282.120 141.600,280.652 141.600 C 280.356 141.600,277.390 143.512,274.061 145.849 M286.922 149.705 C 289.938 153.971,292.746 158.445,292.777 159.035 C 292.819 159.836,277.123 171.274,271.400 174.613 C 270.300 175.255,268.860 176.097,268.200 176.485 C 266.975 177.205,260.048 180.590,258.600 181.177 C 258.160 181.355,257.315 181.694,256.722 181.932 C 254.883 182.667,249.927 182.907,248.812 182.314 C 239.938 177.595,251.719 161.637,276.600 144.673 L 280.600 141.946 282.522 144.073 C 283.579 145.243,285.559 147.777,286.922 149.705 M311.400 163.285 C 305.424 175.799,293.041 189.113,274.200 203.280 C 263.799 211.102,251.798 218.411,236.800 226.059 C 232.290 228.359,227.250 230.840,225.600 231.573 C 215.924 235.872,200.474 241.871,194.200 243.764 C 192.220 244.361,190.150 244.998,189.600 245.179 C 189.050 245.359,187.880 245.706,187.000 245.948 C 176.456 248.855,176.699 248.792,171.400 250.000 C 168.046 250.765,166.849 251.012,158.000 252.768 C 155.524 253.260,154.702 253.536,155.640 253.561 C 156.432 253.583,157.602 253.441,158.240 253.246 C 158.878 253.052,160.660 252.669,162.200 252.396 C 164.916 251.914,175.567 249.572,178.400 248.834 C 181.069 248.139,184.606 247.175,185.800 246.818 C 199.915 242.597,204.694 240.905,217.200 235.706 C 225.732 232.159,225.886 232.088,235.800 227.118 C 245.573 222.219,245.598 222.205,254.600 216.872 C 281.063 201.193,302.266 181.901,310.733 165.800 C 312.849 161.776,311.933 168.512,309.455 175.200 C 301.247 197.353,280.921 218.269,248.602 237.818 C 235.173 245.942,206.467 257.325,192.400 260.105 C 191.850 260.214,189.060 260.774,186.200 261.350 C 177.276 263.147,172.823 263.831,166.800 264.328 L 162.600 264.675 165.800 264.735 C 167.560 264.767,170.170 264.619,171.600 264.404 C 173.030 264.190,175.550 263.820,177.200 263.581 C 178.850 263.343,180.920 262.994,181.800 262.807 C 182.680 262.619,184.480 262.256,185.800 262.000 C 193.982 260.415,200.021 258.785,210.200 255.415 C 215.700 253.594,221.193 251.644,222.407 251.083 C 223.621 250.521,225.574 249.683,226.747 249.221 C 227.921 248.758,232.547 246.600,237.028 244.425 C 274.841 226.068,304.768 196.433,311.378 170.800 C 311.746 169.370,312.217 167.549,312.424 166.754 C 312.873 165.026,312.924 161.598,312.500 161.605 C 312.335 161.607,311.840 162.363,311.400 163.285 M175.600 182.000 C 174.823 182.249,175.084 182.329,176.775 182.360 C 183.573 182.485,184.545 188.377,178.965 195.641 C 170.558 206.587,159.953 212.526,145.000 214.664 C 143.696 214.850,143.329 215.005,143.944 215.108 C 146.202 215.488,154.725 213.422,160.414 211.116 C 170.720 206.938,183.200 193.947,183.200 187.398 C 183.200 183.867,179.026 180.903,175.600 182.000 M171.045 183.822 C 169.750 184.603,167.012 186.487,164.960 188.009 C 160.424 191.374,157.394 193.119,154.889 193.808 C 153.362 194.229,153.219 194.335,154.143 194.364 C 155.795 194.416,159.857 192.351,163.680 189.516 C 168.138 186.210,172.784 183.200,173.428 183.200 C 173.717 183.200,174.064 183.020,174.200 182.800 C 174.696 181.998,173.345 182.435,171.045 183.822 M126.600 193.552 C 121.877 194.920,115.887 199.454,112.065 204.554 C 110.597 206.512,111.479 219.035,113.699 227.769 C 114.367 230.395,114.672 230.367,116.919 227.472 C 121.345 221.772,127.624 217.631,133.400 216.603 C 136.510 216.049,136.533 216.037,134.200 216.178 C 128.294 216.535,118.288 223.108,115.294 228.597 C 114.675 229.733,114.565 229.479,113.657 224.800 C 112.312 217.864,112.000 215.081,112.000 210.024 L 112.000 205.202 114.898 202.151 C 121.274 195.440,125.008 193.647,132.800 193.556 C 136.994 193.507,137.753 193.424,136.200 193.182 C 132.908 192.669,129.148 192.814,126.600 193.552 M139.400 194.000 C 140.060 194.168,141.320 194.305,142.200 194.305 C 143.717 194.305,143.738 194.290,142.600 194.000 C 141.940 193.832,140.680 193.695,139.800 193.695 C 138.283 193.695,138.262 193.710,139.400 194.000 M146.946 194.824 C 148.456 194.999,150.436 194.995,151.346 194.815 C 152.604 194.566,151.946 194.490,148.600 194.496 C 144.363 194.505,144.302 194.517,146.946 194.824 M138.800 215.600 C 137.415 215.892,137.419 215.895,139.200 215.907 C 140.190 215.915,141.450 215.776,142.000 215.600 C 143.354 215.166,140.860 215.166,138.800 215.600 M106.000 251.407 C 106.000 252.434,112.913 256.746,118.000 258.890 C 120.907 260.116,123.912 261.109,129.800 262.791 C 131.991 263.417,136.601 264.097,137.406 263.914 C 137.858 263.812,137.337 263.615,136.200 263.458 C 127.478 262.256,116.938 258.544,110.453 254.392 C 107.433 252.458,107.462 252.199,110.606 253.018 C 111.896 253.354,113.233 253.566,113.576 253.489 C 113.919 253.412,113.390 253.146,112.400 252.899 C 110.610 252.453,108.620 251.903,106.900 251.380 C 106.405 251.230,106.000 251.242,106.000 251.407 M114.400 253.723 C 114.891 254.227,124.165 255.194,127.984 255.140 C 132.885 255.070,132.323 254.952,124.400 254.382 C 121.210 254.153,117.610 253.865,116.400 253.742 C 115.190 253.618,114.290 253.610,114.400 253.723 M147.800 254.048 C 146.480 254.233,143.420 254.541,141.000 254.731 L 136.600 255.078 139.800 255.143 C 142.917 255.206,149.377 254.628,152.600 253.998 L 154.200 253.686 152.200 253.699 C 151.100 253.706,149.120 253.863,147.800 254.048 M251.800 262.781 C 250.886 263.028,251.343 263.117,253.716 263.153 C 258.338 263.223,260.428 264.512,260.929 267.600 C 261.081 268.537,261.094 268.529,261.146 267.462 C 261.303 264.163,256.182 261.597,251.800 262.781 M244.600 264.177 C 227.787 269.013,215.247 281.687,223.204 285.802 C 223.840 286.131,224.684 286.386,225.080 286.370 C 225.496 286.352,225.255 286.141,224.510 285.870 C 214.383 282.183,230.043 267.640,248.400 263.684 C 249.834 263.375,249.956 263.292,249.000 263.277 C 248.340 263.266,246.360 263.671,244.600 264.177 M138.454 264.168 C 139.052 264.812,152.281 265.606,157.400 265.305 L 162.600 265.000 153.200 264.743 C 148.030 264.602,142.540 264.353,141.000 264.190 C 139.460 264.027,138.314 264.017,138.454 264.168 M260.034 269.918 C 259.243 271.828,254.834 276.066,251.120 278.487 C 247.990 280.528,246.937 281.087,243.300 282.641 C 242.475 282.993,241.440 283.435,241.000 283.624 C 240.560 283.812,239.030 284.316,237.600 284.745 C 236.170 285.174,235.360 285.541,235.800 285.560 C 242.219 285.837,261.943 272.828,260.710 269.130 C 260.624 268.873,260.320 269.228,260.034 269.918 M232.196 285.833 C 231.974 285.926,230.444 286.172,228.796 286.379 L 225.800 286.755 229.559 286.543 C 233.225 286.336,236.543 285.643,233.800 285.657 C 233.140 285.660,232.418 285.740,232.196 285.833 " stroke="none" fill="#987c56" fill-rule="evenodd"></path><path id="path4" d="M200.400 108.790 C 199.769 109.012,200.780 109.057,203.143 108.911 C 209.003 108.548,222.309 109.888,230.400 111.657 C 233.702 112.379,241.117 114.617,243.400 115.581 C 269.648 126.662,285.879 142.352,297.376 167.760 C 299.003 171.356,299.047 172.039,297.750 173.627 C 290.805 182.136,280.204 192.011,270.800 198.732 C 267.801 200.876,253.628 210.400,253.437 210.400 C 253.339 210.400,251.792 211.300,250.000 212.400 C 248.208 213.500,246.679 214.400,246.602 214.400 C 246.526 214.400,244.964 215.261,243.132 216.312 C 239.865 218.187,229.154 223.570,225.600 225.123 C 223.710 225.948,220.911 227.192,218.168 228.425 C 217.270 228.828,215.563 229.542,214.375 230.010 C 213.186 230.478,211.260 231.298,210.095 231.831 C 208.930 232.364,207.748 232.800,207.468 232.800 C 207.189 232.800,206.789 232.943,206.580 233.118 C 206.371 233.293,205.480 233.665,204.600 233.945 C 203.720 234.224,202.640 234.603,202.200 234.787 C 200.739 235.398,197.020 236.737,195.600 237.163 C 194.830 237.394,193.120 237.934,191.800 238.364 C 189.173 239.219,185.731 240.269,183.700 240.837 C 182.985 241.037,181.815 241.364,181.100 241.565 C 177.091 242.692,175.079 243.200,172.200 243.814 C 170.440 244.189,168.280 244.657,167.400 244.853 C 166.520 245.049,164.810 245.378,163.600 245.585 C 162.390 245.791,160.320 246.161,159.000 246.407 C 146.566 248.720,123.187 249.765,121.505 248.083 C 120.311 246.889,117.100 238.999,115.611 233.600 C 115.337 232.610,114.844 231.144,114.515 230.342 C 114.186 229.539,113.773 228.279,113.599 227.542 C 113.308 226.309,113.279 226.288,113.241 227.281 C 113.218 227.876,113.361 228.776,113.558 229.281 C 113.755 229.787,114.143 231.010,114.419 232.000 C 115.953 237.502,118.200 243.540,119.999 247.000 L 121.039 249.000 124.820 249.309 C 136.326 250.250,152.546 248.734,169.000 245.180 C 169.880 244.990,171.500 244.652,172.600 244.428 C 174.477 244.046,175.762 243.721,178.900 242.832 C 179.615 242.629,181.370 242.167,182.800 241.805 C 184.230 241.442,185.760 240.999,186.200 240.820 C 186.640 240.642,188.350 240.086,190.000 239.585 C 196.033 237.755,199.911 236.448,203.000 235.203 C 203.440 235.026,204.430 234.664,205.200 234.400 C 205.970 234.136,207.005 233.757,207.500 233.560 C 207.995 233.362,208.805 233.038,209.300 232.840 C 209.795 232.642,211.053 232.102,212.096 231.640 C 213.138 231.178,214.085 230.800,214.200 230.800 C 214.315 230.800,215.262 230.419,216.304 229.953 C 217.347 229.488,218.740 228.877,219.400 228.596 C 226.109 225.738,235.657 221.176,240.400 218.562 C 246.149 215.394,247.086 214.866,249.200 213.603 C 250.410 212.880,251.940 211.978,252.600 211.599 C 257.650 208.696,268.983 201.054,273.030 197.822 C 274.147 196.930,275.668 195.750,276.411 195.200 C 284.224 189.414,299.600 173.937,299.600 171.858 C 299.600 170.608,293.945 158.718,291.928 155.728 C 291.308 154.808,290.800 153.863,290.800 153.628 C 290.800 153.393,290.620 153.200,290.400 153.200 C 290.180 153.200,290.000 152.964,290.000 152.675 C 290.000 152.387,289.640 151.764,289.200 151.292 C 288.760 150.820,288.400 150.337,288.400 150.220 C 288.400 149.357,280.586 140.259,276.354 136.194 C 268.702 128.845,261.870 123.999,251.200 118.350 C 250.473 117.965,245.392 115.681,244.000 115.114 C 243.450 114.890,242.687 114.548,242.305 114.353 C 241.923 114.159,241.336 114.000,241.000 114.000 C 240.664 114.000,240.077 113.838,239.695 113.641 C 237.833 112.679,229.881 110.680,224.400 109.796 C 218.157 108.789,202.289 108.124,200.400 108.790 M193.400 109.588 C 192.937 109.779,193.949 109.829,195.800 109.705 C 197.560 109.587,199.075 109.425,199.167 109.345 C 199.510 109.046,194.167 109.270,193.400 109.588 M188.200 110.484 C 185.874 111.041,183.545 111.649,182.400 111.998 C 181.850 112.166,180.050 112.707,178.400 113.199 C 176.750 113.692,174.995 114.254,174.500 114.448 C 174.005 114.641,173.195 114.955,172.700 115.145 C 153.085 122.670,134.872 138.564,123.364 158.200 C 121.493 161.392,117.200 170.447,117.200 171.201 C 117.200 171.426,117.029 171.923,116.819 172.305 C 116.417 173.038,115.247 176.577,114.407 179.600 C 114.132 180.590,113.767 181.850,113.596 182.400 C 113.133 183.890,111.746 191.165,111.384 194.000 C 110.918 197.655,110.753 212.604,111.161 214.200 C 111.505 215.543,111.537 215.287,111.359 212.600 C 110.312 196.784,114.283 177.398,121.478 163.200 C 124.326 157.580,129.652 148.885,130.789 148.000 C 130.931 147.890,131.306 147.421,131.623 146.957 C 133.593 144.080,141.997 135.196,145.404 132.391 C 146.066 131.846,147.506 130.663,148.604 129.763 C 154.369 125.036,164.202 119.414,173.400 115.585 C 175.919 114.537,183.542 112.251,186.600 111.626 C 190.738 110.781,192.927 110.043,191.200 110.075 C 190.430 110.089,189.080 110.273,188.200 110.484 M311.758 161.500 C 311.639 161.885,311.362 162.533,311.143 162.939 C 310.924 163.345,310.827 163.761,310.929 163.862 C 311.030 163.963,311.356 163.496,311.654 162.823 C 312.877 160.061,313.128 163.504,312.062 168.400 C 311.846 169.390,311.735 170.266,311.815 170.347 C 311.895 170.428,312.066 169.978,312.194 169.347 C 312.323 168.716,312.602 167.647,312.814 166.972 C 313.463 164.908,313.312 160.800,312.587 160.800 C 312.251 160.800,311.877 161.115,311.758 161.500 M309.060 166.860 C 308.257 168.213,307.600 169.445,307.600 169.598 C 307.600 169.751,307.240 170.202,306.800 170.600 C 306.360 170.998,306.000 171.566,306.000 171.862 C 306.000 172.158,305.859 172.400,305.686 172.400 C 305.514 172.400,305.079 172.895,304.721 173.500 C 304.363 174.105,303.597 175.140,303.020 175.800 C 302.442 176.460,301.392 177.754,300.685 178.675 C 297.169 183.261,285.128 194.439,277.066 200.603 C 271.304 205.009,259.545 213.200,258.983 213.200 C 258.851 213.200,257.959 213.740,257.000 214.400 C 256.041 215.060,255.141 215.600,255.000 215.600 C 254.859 215.600,253.959 216.140,253.000 216.800 C 252.041 217.460,251.136 218.000,250.990 218.000 C 250.843 218.000,250.246 218.336,249.662 218.747 C 249.078 219.158,247.160 220.251,245.400 221.176 C 243.640 222.101,242.020 223.053,241.800 223.291 C 240.507 224.690,255.679 215.880,263.859 210.483 C 284.920 196.586,302.509 179.854,309.329 167.228 C 311.209 163.748,311.042 163.520,309.060 166.860 M311.254 171.267 C 311.225 171.634,311.084 172.264,310.941 172.667 C 310.741 173.233,310.795 173.296,311.175 172.946 C 311.446 172.697,311.587 172.067,311.488 171.546 C 311.390 171.026,311.284 170.900,311.254 171.267 M309.635 176.097 C 299.976 201.196,272.689 226.940,237.400 244.248 C 232.780 246.514,229.178 248.375,229.396 248.384 C 230.433 248.426,247.297 239.913,250.062 237.953 C 250.646 237.539,251.239 237.200,251.380 237.200 C 251.521 237.200,252.970 236.300,254.600 235.200 C 256.230 234.100,257.672 233.200,257.804 233.200 C 258.213 233.200,264.469 228.851,267.200 226.668 C 267.530 226.404,268.430 225.744,269.200 225.200 C 269.970 224.656,270.870 223.992,271.200 223.724 C 271.530 223.456,272.896 222.371,274.235 221.311 C 281.842 215.295,288.982 208.312,294.800 201.200 C 295.790 199.990,296.934 198.640,297.343 198.200 C 300.327 194.985,307.378 183.005,309.643 177.300 C 309.839 176.805,310.201 175.968,310.446 175.439 C 310.692 174.911,310.827 174.280,310.746 174.037 C 310.664 173.793,310.165 174.721,309.635 176.097 M303.002 198.883 C 298.745 205.367,284.618 219.780,276.200 226.226 C 270.905 230.281,269.191 231.569,267.400 232.838 C 264.433 234.939,261.492 236.925,260.382 237.576 C 259.842 237.892,258.251 238.854,256.847 239.713 C 255.442 240.571,253.687 241.617,252.947 242.037 C 250.594 243.370,249.055 244.256,247.000 245.460 C 245.900 246.104,242.930 247.644,240.400 248.883 C 236.213 250.932,234.630 251.661,230.400 253.490 C 229.630 253.823,228.460 254.329,227.800 254.615 C 225.203 255.740,218.103 258.507,216.400 259.058 C 215.410 259.378,214.240 259.793,213.800 259.980 C 212.740 260.430,211.002 260.995,208.800 261.608 C 205.348 262.567,204.195 262.913,203.400 263.225 C 202.960 263.398,202.060 263.651,201.400 263.788 C 200.740 263.924,199.570 264.192,198.800 264.382 C 197.213 264.775,192.896 265.856,190.800 266.386 C 190.030 266.581,188.320 266.947,187.000 267.200 C 185.680 267.453,183.970 267.817,183.200 268.010 C 182.430 268.203,180.720 268.477,179.400 268.621 C 178.080 268.764,175.830 269.031,174.400 269.214 C 161.041 270.925,148.142 271.041,139.137 269.532 C 134.309 268.723,134.136 269.383,138.100 273.490 C 145.836 281.504,154.095 287.560,165.600 293.650 C 166.327 294.035,171.408 296.319,172.800 296.886 C 173.350 297.110,174.113 297.452,174.495 297.647 C 174.877 297.841,175.464 298.000,175.800 298.000 C 176.136 298.000,176.723 298.162,177.105 298.359 C 178.419 299.038,185.076 300.855,188.800 301.552 C 197.360 303.153,201.735 303.601,208.600 303.582 C 216.426 303.559,228.338 301.910,234.400 300.010 C 234.950 299.838,236.750 299.293,238.400 298.801 C 240.050 298.308,241.760 297.760,242.200 297.583 C 245.708 296.175,247.272 295.449,252.314 292.893 C 258.075 289.972,264.882 285.685,268.596 282.638 C 272.491 279.442,273.031 278.966,276.342 275.800 C 283.674 268.790,292.459 256.732,296.158 248.600 C 298.432 243.603,298.922 242.507,299.289 241.600 C 299.511 241.050,299.852 240.287,300.047 239.905 C 300.241 239.523,300.400 238.859,300.400 238.429 C 300.400 237.999,300.580 237.536,300.800 237.400 C 301.020 237.264,301.200 236.801,301.200 236.371 C 301.200 235.941,301.362 235.277,301.561 234.895 C 302.022 234.008,303.276 229.261,303.964 225.800 C 305.542 217.863,306.003 213.453,305.977 206.579 C 305.940 197.115,305.281 195.410,303.002 198.883 M304.822 199.100 C 304.833 199.485,305.001 201.240,305.193 203.000 C 305.400 204.891,305.389 208.327,305.167 211.400 C 304.562 219.742,303.643 225.249,301.626 232.600 C 301.186 234.204,299.254 239.996,298.824 241.000 C 298.636 241.440,298.175 242.520,297.800 243.400 C 290.332 260.934,277.826 276.013,261.800 286.805 C 256.322 290.494,244.382 296.286,238.800 297.962 C 238.030 298.193,236.320 298.721,235.000 299.135 C 232.421 299.943,230.063 300.481,226.100 301.167 C 224.725 301.405,222.475 301.822,221.100 302.093 C 217.679 302.767,198.700 302.750,195.200 302.069 C 193.770 301.791,191.610 301.377,190.400 301.149 C 185.152 300.161,183.321 299.691,177.600 297.859 C 169.969 295.416,161.646 291.272,153.762 285.990 C 150.931 284.093,149.802 283.231,145.404 279.608 C 143.138 277.742,135.854 270.413,136.060 270.207 C 136.173 270.093,139.131 270.287,142.633 270.636 C 149.398 271.311,163.745 271.214,170.200 270.451 C 183.693 268.855,192.580 267.045,205.900 263.177 C 206.615 262.970,207.785 262.638,208.500 262.441 C 212.075 261.452,221.972 257.830,226.600 255.815 C 227.260 255.528,228.653 254.912,229.696 254.447 C 230.738 253.981,231.679 253.600,231.786 253.600 C 232.499 253.600,245.352 247.254,248.800 245.199 C 250.010 244.478,251.540 243.580,252.200 243.203 C 272.610 231.543,292.907 214.399,302.401 200.800 C 304.212 198.206,304.782 197.806,304.822 199.100 M111.606 218.233 C 111.609 219.535,111.771 220.850,111.965 221.156 C 112.177 221.491,112.233 220.616,112.106 218.956 C 111.840 215.489,111.598 215.139,111.606 218.233 M112.406 223.433 C 112.409 224.295,112.588 225.270,112.803 225.600 C 113.070 226.010,113.114 225.565,112.941 224.200 C 112.625 221.705,112.398 221.381,112.406 223.433 M237.000 225.418 C 236.120 225.947,233.555 227.298,231.300 228.421 C 227.544 230.290,226.143 231.156,227.900 230.522 C 228.647 230.253,239.286 224.809,239.567 224.552 C 240.171 224.001,238.317 224.626,237.000 225.418 M224.893 231.380 C 223.300 232.260,223.348 232.506,224.979 231.829 C 225.848 231.469,226.643 231.090,226.746 230.987 C 227.126 230.608,225.771 230.894,224.893 231.380 M221.600 232.791 C 220.524 233.409,217.218 234.800,216.828 234.800 C 216.619 234.800,216.335 234.982,216.197 235.205 C 216.060 235.427,216.904 235.233,218.074 234.774 C 221.463 233.441,223.449 232.468,222.800 232.457 C 222.470 232.452,221.930 232.602,221.600 232.791 M212.000 236.777 C 211.285 237.171,209.695 237.832,208.643 238.173 C 208.226 238.308,207.979 238.513,208.094 238.627 C 208.305 238.838,213.600 236.848,213.600 236.557 C 213.600 236.294,212.637 236.427,212.000 236.777 M205.600 239.275 C 204.081 239.914,203.078 240.302,202.243 240.573 C 201.826 240.708,201.578 240.912,201.692 241.025 C 201.805 241.139,203.226 240.694,204.849 240.036 C 206.472 239.379,207.530 238.844,207.200 238.848 C 206.870 238.851,206.150 239.044,205.600 239.275 M197.800 242.089 C 196.480 242.528,195.087 243.047,194.705 243.244 C 194.323 243.440,193.659 243.600,193.229 243.600 C 192.799 243.600,192.336 243.780,192.200 244.000 C 191.852 244.564,200.499 242.034,201.152 241.381 C 201.514 241.019,200.147 241.308,197.800 242.089 M189.200 244.775 C 188.213 245.314,185.802 246.000,184.895 246.000 C 184.429 246.000,183.924 246.199,183.774 246.443 C 183.588 246.743,183.807 246.803,184.450 246.629 C 190.187 245.078,192.048 244.437,190.800 244.443 C 190.250 244.445,189.530 244.594,189.200 244.775 M180.990 247.216 C 180.821 247.489,181.123 247.538,181.866 247.360 C 183.399 246.992,183.544 246.800,182.290 246.800 C 181.717 246.800,181.132 246.987,180.990 247.216 M178.283 247.851 C 178.145 247.989,177.260 248.269,176.316 248.473 C 175.372 248.677,173.835 249.014,172.900 249.222 C 166.633 250.616,164.477 251.056,161.606 251.528 C 160.509 251.708,159.474 251.994,159.306 252.163 C 158.872 252.600,163.697 251.743,171.200 250.050 C 175.004 249.191,180.207 247.883,180.367 247.745 C 180.458 247.665,180.083 247.600,179.533 247.600 C 178.983 247.600,178.420 247.713,178.283 247.851 M226.200 249.423 C 222.852 250.803,221.312 251.580,221.905 251.591 C 222.183 251.596,222.723 251.441,223.105 251.247 C 223.487 251.052,224.250 250.711,224.800 250.487 C 227.181 249.521,228.800 248.749,228.800 248.581 C 228.800 248.340,228.927 248.299,226.200 249.423 M105.407 251.189 C 105.249 251.444,105.183 251.711,105.260 251.782 C 105.921 252.392,109.258 254.800,109.442 254.800 C 109.571 254.800,110.185 255.162,110.807 255.605 C 112.380 256.725,116.386 258.803,116.941 258.786 C 117.193 258.779,116.230 258.176,114.800 257.446 C 110.439 255.220,106.000 252.174,106.000 251.406 C 106.000 251.242,106.405 251.230,106.900 251.380 C 108.215 251.780,109.911 252.254,112.400 252.916 C 114.853 253.569,119.433 254.099,119.016 253.682 C 118.868 253.535,117.634 253.290,116.274 253.140 C 113.878 252.874,112.354 252.551,109.000 251.599 C 106.059 250.764,105.695 250.722,105.407 251.189 M219.200 252.400 C 218.210 252.815,217.687 253.165,218.039 253.178 C 218.688 253.200,221.200 252.082,221.200 251.771 C 221.200 251.551,221.294 251.521,219.200 252.400 M155.200 252.823 C 154.774 253.114,155.180 253.155,156.600 252.965 C 157.700 252.818,158.675 252.631,158.767 252.549 C 159.168 252.190,155.739 252.454,155.200 252.823 M148.600 253.602 C 148.116 253.811,149.062 253.857,151.000 253.718 C 152.760 253.592,154.275 253.423,154.367 253.344 C 154.723 253.036,149.355 253.276,148.600 253.602 M215.800 253.600 C 215.029 253.931,215.031 253.945,215.876 253.972 C 216.358 253.987,216.864 253.820,217.000 253.600 C 217.292 253.127,216.901 253.127,215.800 253.600 M119.633 254.145 C 119.725 254.225,122.320 254.387,125.400 254.507 C 128.894 254.642,130.398 254.596,129.400 254.385 C 127.860 254.059,119.292 253.848,119.633 254.145 M138.600 254.408 C 137.940 254.581,139.650 254.625,142.400 254.506 C 145.150 254.387,147.475 254.225,147.567 254.145 C 147.892 253.862,139.780 254.100,138.600 254.408 M213.400 254.400 C 212.629 254.731,212.631 254.745,213.476 254.772 C 213.958 254.787,214.464 254.620,214.600 254.400 C 214.892 253.927,214.501 253.927,213.400 254.400 M133.100 255.089 C 133.815 255.178,134.985 255.178,135.700 255.089 C 136.415 255.001,135.830 254.928,134.400 254.928 C 132.970 254.928,132.385 255.001,133.100 255.089 M211.000 255.200 C 210.229 255.531,210.231 255.545,211.076 255.572 C 211.558 255.587,212.064 255.420,212.200 255.200 C 212.492 254.727,212.101 254.727,211.000 255.200 M208.600 256.000 C 207.829 256.331,207.831 256.345,208.676 256.372 C 209.158 256.387,209.664 256.220,209.800 256.000 C 210.092 255.527,209.701 255.527,208.600 256.000 M204.800 257.200 C 203.157 257.758,202.873 257.954,203.676 257.974 C 204.268 257.988,204.864 257.820,205.000 257.600 C 205.136 257.380,205.676 257.200,206.200 257.200 C 206.724 257.200,207.264 257.020,207.400 256.800 C 207.729 256.267,207.395 256.319,204.800 257.200 M117.600 259.000 C 117.600 259.319,120.378 260.474,120.804 260.332 C 121.043 260.252,120.420 259.884,119.419 259.513 C 118.419 259.142,117.600 258.911,117.600 259.000 M196.600 259.628 C 195.060 260.046,194.475 260.301,195.300 260.194 C 198.294 259.807,199.612 259.505,199.827 259.156 C 200.111 258.697,199.938 258.722,196.600 259.628 M121.800 260.800 C 121.936 261.020,122.442 261.187,122.924 261.172 C 123.769 261.145,123.771 261.131,123.000 260.800 C 121.899 260.327,121.508 260.327,121.800 260.800 M191.600 260.809 C 190.830 260.983,189.120 261.338,187.800 261.598 C 186.480 261.858,184.500 262.254,183.400 262.478 C 182.300 262.702,180.590 263.032,179.600 263.212 L 177.800 263.538 179.800 263.395 C 180.900 263.317,182.745 263.061,183.900 262.826 C 188.914 261.808,190.287 261.547,191.703 261.337 C 192.529 261.215,193.305 260.955,193.426 260.758 C 193.673 260.358,193.580 260.361,191.600 260.809 M124.171 261.554 C 124.292 261.749,124.887 262.007,125.495 262.129 C 126.103 262.251,127.410 262.555,128.400 262.804 C 129.390 263.054,130.830 263.327,131.600 263.410 L 133.000 263.563 131.600 263.204 C 130.830 263.006,129.480 262.671,128.600 262.459 C 127.720 262.248,126.371 261.878,125.603 261.637 C 123.917 261.110,123.896 261.109,124.171 261.554 M133.600 263.998 C 134.141 264.349,138.765 264.600,138.367 264.256 C 138.275 264.177,137.030 263.998,135.600 263.860 C 133.851 263.690,133.196 263.735,133.600 263.998 M174.400 264.000 L 172.600 264.280 174.400 264.312 C 175.390 264.329,176.560 264.189,177.000 264.000 L 177.800 263.656 177.000 263.688 C 176.560 263.706,175.390 263.846,174.400 264.000 M139.216 264.818 C 139.751 265.157,145.548 265.387,145.167 265.055 C 145.075 264.975,143.567 264.806,141.816 264.679 C 139.803 264.534,138.847 264.585,139.216 264.818 M166.200 264.800 L 162.200 265.045 166.600 265.094 C 169.020 265.122,171.360 264.989,171.800 264.800 C 172.720 264.405,172.651 264.405,166.200 264.800 M146.400 265.639 C 147.708 266.007,157.287 266.021,159.600 265.659 C 160.629 265.498,157.971 265.373,153.400 265.367 C 149.000 265.362,145.850 265.485,146.400 265.639 " stroke="none" fill="#321172" fill-rule="evenodd"></path></g></svg>