<?xml version="1.0" encoding="utf-8" standalone="no"?>
<!DOCTYPE svg PUBLIC "-//W3C//DTD SVG 1.1//EN"
  "http://www.w3.org/Graphics/SVG/1.1/DTD/svg11.dtd">
<svg xmlns:xlink="http://www.w3.org/1999/xlink" width="460.8pt" height="345.6pt" viewBox="0 0 460.8 345.6" xmlns="http://www.w3.org/2000/svg" version="1.1">
 <metadata>
  <rdf:RDF xmlns:dc="http://purl.org/dc/elements/1.1/" xmlns:cc="http://creativecommons.org/ns#" xmlns:rdf="http://www.w3.org/1999/02/22-rdf-syntax-ns#">
   <cc:Work>
    <dc:type rdf:resource="http://purl.org/dc/dcmitype/StillImage"/>
    <dc:date>2025-06-15T19:27:06.098846</dc:date>
    <dc:format>image/svg+xml</dc:format>
    <dc:creator>
     <cc:Agent>
      <dc:title>Matplotlib v3.10.3, https://matplotlib.org/</dc:title>
     </cc:Agent>
    </dc:creator>
   </cc:Work>
  </rdf:RDF>
 </metadata>
 <defs>
  <style type="text/css">*{stroke-linejoin: round; stroke-linecap: butt}</style>
 </defs>
 <g id="figure_1">
  <g id="patch_1">
   <path d="M 0 345.6 
L 460.8 345.6 
L 460.8 0 
L 0 0 
z
" style="fill: #ffffff"/>
  </g>
  <g id="axes_1">
   <g id="patch_2">
    <path d="M 57.6 307.584 
L 414.72 307.584 
L 414.72 41.472 
L 57.6 41.472 
z
" style="fill: #ffffff"/>
   </g>
   <g id="matplotlib.axis_1">
    <g id="xtick_1">
     <g id="line2d_1">
      <path d="M 86.319441 307.584 
L 86.319441 41.472 
" clip-path="url(#p3dac6465dc)" style="fill: none; stroke: #b0b0b0; stroke-width: 0.8; stroke-linecap: square"/>
     </g>
     <g id="line2d_2">
      <defs>
       <path id="me6488c1b99" d="M 0 0 
L 0 3.5 
" style="stroke: #000000; stroke-width: 0.8"/>
      </defs>
      <g>
       <use xlink:href="#me6488c1b99" x="86.319441" y="307.584" style="stroke: #000000; stroke-width: 0.8"/>
      </g>
     </g>
     <g id="text_1">
      <!-- 10 -->
      <g transform="translate(79.956941 322.182437) scale(0.1 -0.1)">
       <defs>
        <path id="DejaVuSans-31" d="M 794 531 
L 1825 531 
L 1825 4091 
L 703 3866 
L 703 4441 
L 1819 4666 
L 2450 4666 
L 2450 531 
L 3481 531 
L 3481 0 
L 794 0 
L 794 531 
z
" transform="scale(0.015625)"/>
        <path id="DejaVuSans-30" d="M 2034 4250 
Q 1547 4250 1301 3770 
Q 1056 3291 1056 2328 
Q 1056 1369 1301 889 
Q 1547 409 2034 409 
Q 2525 409 2770 889 
Q 3016 1369 3016 2328 
Q 3016 3291 2770 3770 
Q 2525 4250 2034 4250 
z
M 2034 4750 
Q 2819 4750 3233 4129 
Q 3647 3509 3647 2328 
Q 3647 1150 3233 529 
Q 2819 -91 2034 -91 
Q 1250 -91 836 529 
Q 422 1150 422 2328 
Q 422 3509 836 4129 
Q 1250 4750 2034 4750 
z
" transform="scale(0.015625)"/>
       </defs>
       <use xlink:href="#DejaVuSans-31"/>
       <use xlink:href="#DejaVuSans-30" transform="translate(63.623047 0)"/>
      </g>
     </g>
    </g>
    <g id="xtick_2">
     <g id="line2d_3">
      <path d="M 148.753007 307.584 
L 148.753007 41.472 
" clip-path="url(#p3dac6465dc)" style="fill: none; stroke: #b0b0b0; stroke-width: 0.8; stroke-linecap: square"/>
     </g>
     <g id="line2d_4">
      <g>
       <use xlink:href="#me6488c1b99" x="148.753007" y="307.584" style="stroke: #000000; stroke-width: 0.8"/>
      </g>
     </g>
     <g id="text_2">
      <!-- 20 -->
      <g transform="translate(142.390507 322.182437) scale(0.1 -0.1)">
       <defs>
        <path id="DejaVuSans-32" d="M 1228 531 
L 3431 531 
L 3431 0 
L 469 0 
L 469 531 
Q 828 903 1448 1529 
Q 2069 2156 2228 2338 
Q 2531 2678 2651 2914 
Q 2772 3150 2772 3378 
Q 2772 3750 2511 3984 
Q 2250 4219 1831 4219 
Q 1534 4219 1204 4116 
Q 875 4013 500 3803 
L 500 4441 
Q 881 4594 1212 4672 
Q 1544 4750 1819 4750 
Q 2544 4750 2975 4387 
Q 3406 4025 3406 3419 
Q 3406 3131 3298 2873 
Q 3191 2616 2906 2266 
Q 2828 2175 2409 1742 
Q 1991 1309 1228 531 
z
" transform="scale(0.015625)"/>
       </defs>
       <use xlink:href="#DejaVuSans-32"/>
       <use xlink:href="#DejaVuSans-30" transform="translate(63.623047 0)"/>
      </g>
     </g>
    </g>
    <g id="xtick_3">
     <g id="line2d_5">
      <path d="M 211.186573 307.584 
L 211.186573 41.472 
" clip-path="url(#p3dac6465dc)" style="fill: none; stroke: #b0b0b0; stroke-width: 0.8; stroke-linecap: square"/>
     </g>
     <g id="line2d_6">
      <g>
       <use xlink:href="#me6488c1b99" x="211.186573" y="307.584" style="stroke: #000000; stroke-width: 0.8"/>
      </g>
     </g>
     <g id="text_3">
      <!-- 30 -->
      <g transform="translate(204.824073 322.182437) scale(0.1 -0.1)">
       <defs>
        <path id="DejaVuSans-33" d="M 2597 2516 
Q 3050 2419 3304 2112 
Q 3559 1806 3559 1356 
Q 3559 666 3084 287 
Q 2609 -91 1734 -91 
Q 1441 -91 1130 -33 
Q 819 25 488 141 
L 488 750 
Q 750 597 1062 519 
Q 1375 441 1716 441 
Q 2309 441 2620 675 
Q 2931 909 2931 1356 
Q 2931 1769 2642 2001 
Q 2353 2234 1838 2234 
L 1294 2234 
L 1294 2753 
L 1863 2753 
Q 2328 2753 2575 2939 
Q 2822 3125 2822 3475 
Q 2822 3834 2567 4026 
Q 2313 4219 1838 4219 
Q 1578 4219 1281 4162 
Q 984 4106 628 3988 
L 628 4550 
Q 988 4650 1302 4700 
Q 1616 4750 1894 4750 
Q 2613 4750 3031 4423 
Q 3450 4097 3450 3541 
Q 3450 3153 3228 2886 
Q 3006 2619 2597 2516 
z
" transform="scale(0.015625)"/>
       </defs>
       <use xlink:href="#DejaVuSans-33"/>
       <use xlink:href="#DejaVuSans-30" transform="translate(63.623047 0)"/>
      </g>
     </g>
    </g>
    <g id="xtick_4">
     <g id="line2d_7">
      <path d="M 273.62014 307.584 
L 273.62014 41.472 
" clip-path="url(#p3dac6465dc)" style="fill: none; stroke: #b0b0b0; stroke-width: 0.8; stroke-linecap: square"/>
     </g>
     <g id="line2d_8">
      <g>
       <use xlink:href="#me6488c1b99" x="273.62014" y="307.584" style="stroke: #000000; stroke-width: 0.8"/>
      </g>
     </g>
     <g id="text_4">
      <!-- 40 -->
      <g transform="translate(267.25764 322.182437) scale(0.1 -0.1)">
       <defs>
        <path id="DejaVuSans-34" d="M 2419 4116 
L 825 1625 
L 2419 1625 
L 2419 4116 
z
M 2253 4666 
L 3047 4666 
L 3047 1625 
L 3713 1625 
L 3713 1100 
L 3047 1100 
L 3047 0 
L 2419 0 
L 2419 1100 
L 313 1100 
L 313 1709 
L 2253 4666 
z
" transform="scale(0.015625)"/>
       </defs>
       <use xlink:href="#DejaVuSans-34"/>
       <use xlink:href="#DejaVuSans-30" transform="translate(63.623047 0)"/>
      </g>
     </g>
    </g>
    <g id="xtick_5">
     <g id="line2d_9">
      <path d="M 336.053706 307.584 
L 336.053706 41.472 
" clip-path="url(#p3dac6465dc)" style="fill: none; stroke: #b0b0b0; stroke-width: 0.8; stroke-linecap: square"/>
     </g>
     <g id="line2d_10">
      <g>
       <use xlink:href="#me6488c1b99" x="336.053706" y="307.584" style="stroke: #000000; stroke-width: 0.8"/>
      </g>
     </g>
     <g id="text_5">
      <!-- 50 -->
      <g transform="translate(329.691206 322.182437) scale(0.1 -0.1)">
       <defs>
        <path id="DejaVuSans-35" d="M 691 4666 
L 3169 4666 
L 3169 4134 
L 1269 4134 
L 1269 2991 
Q 1406 3038 1543 3061 
Q 1681 3084 1819 3084 
Q 2600 3084 3056 2656 
Q 3513 2228 3513 1497 
Q 3513 744 3044 326 
Q 2575 -91 1722 -91 
Q 1428 -91 1123 -41 
Q 819 9 494 109 
L 494 744 
Q 775 591 1075 516 
Q 1375 441 1709 441 
Q 2250 441 2565 725 
Q 2881 1009 2881 1497 
Q 2881 1984 2565 2268 
Q 2250 2553 1709 2553 
Q 1456 2553 1204 2497 
Q 953 2441 691 2322 
L 691 4666 
z
" transform="scale(0.015625)"/>
       </defs>
       <use xlink:href="#DejaVuSans-35"/>
       <use xlink:href="#DejaVuSans-30" transform="translate(63.623047 0)"/>
      </g>
     </g>
    </g>
    <g id="xtick_6">
     <g id="line2d_11">
      <path d="M 398.487273 307.584 
L 398.487273 41.472 
" clip-path="url(#p3dac6465dc)" style="fill: none; stroke: #b0b0b0; stroke-width: 0.8; stroke-linecap: square"/>
     </g>
     <g id="line2d_12">
      <g>
       <use xlink:href="#me6488c1b99" x="398.487273" y="307.584" style="stroke: #000000; stroke-width: 0.8"/>
      </g>
     </g>
     <g id="text_6">
      <!-- 60 -->
      <g transform="translate(392.124773 322.182437) scale(0.1 -0.1)">
       <defs>
        <path id="DejaVuSans-36" d="M 2113 2584 
Q 1688 2584 1439 2293 
Q 1191 2003 1191 1497 
Q 1191 994 1439 701 
Q 1688 409 2113 409 
Q 2538 409 2786 701 
Q 3034 994 3034 1497 
Q 3034 2003 2786 2293 
Q 2538 2584 2113 2584 
z
M 3366 4563 
L 3366 3988 
Q 3128 4100 2886 4159 
Q 2644 4219 2406 4219 
Q 1781 4219 1451 3797 
Q 1122 3375 1075 2522 
Q 1259 2794 1537 2939 
Q 1816 3084 2150 3084 
Q 2853 3084 3261 2657 
Q 3669 2231 3669 1497 
Q 3669 778 3244 343 
Q 2819 -91 2113 -91 
Q 1303 -91 875 529 
Q 447 1150 447 2328 
Q 447 3434 972 4092 
Q 1497 4750 2381 4750 
Q 2619 4750 2861 4703 
Q 3103 4656 3366 4563 
z
" transform="scale(0.015625)"/>
       </defs>
       <use xlink:href="#DejaVuSans-36"/>
       <use xlink:href="#DejaVuSans-30" transform="translate(63.623047 0)"/>
      </g>
     </g>
    </g>
    <g id="text_7">
     <!-- Volume (m³) -->
     <g transform="translate(205.1975 335.860562) scale(0.1 -0.1)">
      <defs>
       <path id="DejaVuSans-56" d="M 1831 0 
L 50 4666 
L 709 4666 
L 2188 738 
L 3669 4666 
L 4325 4666 
L 2547 0 
L 1831 0 
z
" transform="scale(0.015625)"/>
       <path id="DejaVuSans-6f" d="M 1959 3097 
Q 1497 3097 1228 2736 
Q 959 2375 959 1747 
Q 959 1119 1226 758 
Q 1494 397 1959 397 
Q 2419 397 2687 759 
Q 2956 1122 2956 1747 
Q 2956 2369 2687 2733 
Q 2419 3097 1959 3097 
z
M 1959 3584 
Q 2709 3584 3137 3096 
Q 3566 2609 3566 1747 
Q 3566 888 3137 398 
Q 2709 -91 1959 -91 
Q 1206 -91 779 398 
Q 353 888 353 1747 
Q 353 2609 779 3096 
Q 1206 3584 1959 3584 
z
" transform="scale(0.015625)"/>
       <path id="DejaVuSans-6c" d="M 603 4863 
L 1178 4863 
L 1178 0 
L 603 0 
L 603 4863 
z
" transform="scale(0.015625)"/>
       <path id="DejaVuSans-75" d="M 544 1381 
L 544 3500 
L 1119 3500 
L 1119 1403 
Q 1119 906 1312 657 
Q 1506 409 1894 409 
Q 2359 409 2629 706 
Q 2900 1003 2900 1516 
L 2900 3500 
L 3475 3500 
L 3475 0 
L 2900 0 
L 2900 538 
Q 2691 219 2414 64 
Q 2138 -91 1772 -91 
Q 1169 -91 856 284 
Q 544 659 544 1381 
z
M 1991 3584 
L 1991 3584 
z
" transform="scale(0.015625)"/>
       <path id="DejaVuSans-6d" d="M 3328 2828 
Q 3544 3216 3844 3400 
Q 4144 3584 4550 3584 
Q 5097 3584 5394 3201 
Q 5691 2819 5691 2113 
L 5691 0 
L 5113 0 
L 5113 2094 
Q 5113 2597 4934 2840 
Q 4756 3084 4391 3084 
Q 3944 3084 3684 2787 
Q 3425 2491 3425 1978 
L 3425 0 
L 2847 0 
L 2847 2094 
Q 2847 2600 2669 2842 
Q 2491 3084 2119 3084 
Q 1678 3084 1418 2786 
Q 1159 2488 1159 1978 
L 1159 0 
L 581 0 
L 581 3500 
L 1159 3500 
L 1159 2956 
Q 1356 3278 1631 3431 
Q 1906 3584 2284 3584 
Q 2666 3584 2933 3390 
Q 3200 3197 3328 2828 
z
" transform="scale(0.015625)"/>
       <path id="DejaVuSans-65" d="M 3597 1894 
L 3597 1613 
L 953 1613 
Q 991 1019 1311 708 
Q 1631 397 2203 397 
Q 2534 397 2845 478 
Q 3156 559 3463 722 
L 3463 178 
Q 3153 47 2828 -22 
Q 2503 -91 2169 -91 
Q 1331 -91 842 396 
Q 353 884 353 1716 
Q 353 2575 817 3079 
Q 1281 3584 2069 3584 
Q 2775 3584 3186 3129 
Q 3597 2675 3597 1894 
z
M 3022 2063 
Q 3016 2534 2758 2815 
Q 2500 3097 2075 3097 
Q 1594 3097 1305 2825 
Q 1016 2553 972 2059 
L 3022 2063 
z
" transform="scale(0.015625)"/>
       <path id="DejaVuSans-20" transform="scale(0.015625)"/>
       <path id="DejaVuSans-28" d="M 1984 4856 
Q 1566 4138 1362 3434 
Q 1159 2731 1159 2009 
Q 1159 1288 1364 580 
Q 1569 -128 1984 -844 
L 1484 -844 
Q 1016 -109 783 600 
Q 550 1309 550 2009 
Q 550 2706 781 3412 
Q 1013 4119 1484 4856 
L 1984 4856 
z
" transform="scale(0.015625)"/>
       <path id="DejaVuSans-b3" d="M 1638 3500 
Q 1925 3444 2083 3273 
Q 2241 3103 2241 2847 
Q 2241 2459 1944 2250 
Q 1647 2041 1094 2041 
Q 916 2041 720 2073 
Q 525 2106 306 2169 
L 306 2547 
Q 469 2463 655 2422 
Q 841 2381 1050 2381 
Q 1391 2381 1578 2504 
Q 1766 2628 1766 2847 
Q 1766 3078 1592 3197 
Q 1419 3316 1081 3316 
L 813 3316 
L 813 3653 
L 1106 3653 
Q 1400 3653 1551 3751 
Q 1703 3850 1703 4038 
Q 1703 4219 1547 4314 
Q 1391 4409 1094 4409 
Q 969 4409 809 4381 
Q 650 4353 397 4281 
L 397 4641 
Q 625 4694 825 4722 
Q 1025 4750 1197 4750 
Q 1647 4750 1911 4565 
Q 2175 4381 2175 4072 
Q 2175 3856 2034 3706 
Q 1894 3556 1638 3500 
z
" transform="scale(0.015625)"/>
       <path id="DejaVuSans-29" d="M 513 4856 
L 1013 4856 
Q 1481 4119 1714 3412 
Q 1947 2706 1947 2009 
Q 1947 1309 1714 600 
Q 1481 -109 1013 -844 
L 513 -844 
Q 928 -128 1133 580 
Q 1338 1288 1338 2009 
Q 1338 2731 1133 3434 
Q 928 4138 513 4856 
z
" transform="scale(0.015625)"/>
      </defs>
      <use xlink:href="#DejaVuSans-56"/>
      <use xlink:href="#DejaVuSans-6f" transform="translate(60.658203 0)"/>
      <use xlink:href="#DejaVuSans-6c" transform="translate(121.839844 0)"/>
      <use xlink:href="#DejaVuSans-75" transform="translate(149.623047 0)"/>
      <use xlink:href="#DejaVuSans-6d" transform="translate(213.001953 0)"/>
      <use xlink:href="#DejaVuSans-65" transform="translate(310.414062 0)"/>
      <use xlink:href="#DejaVuSans-20" transform="translate(371.9375 0)"/>
      <use xlink:href="#DejaVuSans-28" transform="translate(403.724609 0)"/>
      <use xlink:href="#DejaVuSans-6d" transform="translate(442.738281 0)"/>
      <use xlink:href="#DejaVuSans-b3" transform="translate(540.150391 0)"/>
      <use xlink:href="#DejaVuSans-29" transform="translate(580.238281 0)"/>
     </g>
    </g>
   </g>
   <g id="matplotlib.axis_2">
    <g id="ytick_1">
     <g id="line2d_13">
      <path d="M 57.6 265.919466 
L 414.72 265.919466 
" clip-path="url(#p3dac6465dc)" style="fill: none; stroke: #b0b0b0; stroke-width: 0.8; stroke-linecap: square"/>
     </g>
     <g id="line2d_14">
      <defs>
       <path id="mfae03f7fd1" d="M 0 0 
L -3.5 0 
" style="stroke: #000000; stroke-width: 0.8"/>
      </defs>
      <g>
       <use xlink:href="#mfae03f7fd1" x="57.6" y="265.919466" style="stroke: #000000; stroke-width: 0.8"/>
      </g>
     </g>
     <g id="text_8">
      <!-- 100 -->
      <g transform="translate(31.5125 269.718685) scale(0.1 -0.1)">
       <use xlink:href="#DejaVuSans-31"/>
       <use xlink:href="#DejaVuSans-30" transform="translate(63.623047 0)"/>
       <use xlink:href="#DejaVuSans-30" transform="translate(127.246094 0)"/>
      </g>
     </g>
    </g>
    <g id="ytick_2">
     <g id="line2d_15">
      <path d="M 57.6 215.31441 
L 414.72 215.31441 
" clip-path="url(#p3dac6465dc)" style="fill: none; stroke: #b0b0b0; stroke-width: 0.8; stroke-linecap: square"/>
     </g>
     <g id="line2d_16">
      <g>
       <use xlink:href="#mfae03f7fd1" x="57.6" y="215.31441" style="stroke: #000000; stroke-width: 0.8"/>
      </g>
     </g>
     <g id="text_9">
      <!-- 200 -->
      <g transform="translate(31.5125 219.113629) scale(0.1 -0.1)">
       <use xlink:href="#DejaVuSans-32"/>
       <use xlink:href="#DejaVuSans-30" transform="translate(63.623047 0)"/>
       <use xlink:href="#DejaVuSans-30" transform="translate(127.246094 0)"/>
      </g>
     </g>
    </g>
    <g id="ytick_3">
     <g id="line2d_17">
      <path d="M 57.6 164.709354 
L 414.72 164.709354 
" clip-path="url(#p3dac6465dc)" style="fill: none; stroke: #b0b0b0; stroke-width: 0.8; stroke-linecap: square"/>
     </g>
     <g id="line2d_18">
      <g>
       <use xlink:href="#mfae03f7fd1" x="57.6" y="164.709354" style="stroke: #000000; stroke-width: 0.8"/>
      </g>
     </g>
     <g id="text_10">
      <!-- 300 -->
      <g transform="translate(31.5125 168.508573) scale(0.1 -0.1)">
       <use xlink:href="#DejaVuSans-33"/>
       <use xlink:href="#DejaVuSans-30" transform="translate(63.623047 0)"/>
       <use xlink:href="#DejaVuSans-30" transform="translate(127.246094 0)"/>
      </g>
     </g>
    </g>
    <g id="ytick_4">
     <g id="line2d_19">
      <path d="M 57.6 114.104298 
L 414.72 114.104298 
" clip-path="url(#p3dac6465dc)" style="fill: none; stroke: #b0b0b0; stroke-width: 0.8; stroke-linecap: square"/>
     </g>
     <g id="line2d_20">
      <g>
       <use xlink:href="#mfae03f7fd1" x="57.6" y="114.104298" style="stroke: #000000; stroke-width: 0.8"/>
      </g>
     </g>
     <g id="text_11">
      <!-- 400 -->
      <g transform="translate(31.5125 117.903517) scale(0.1 -0.1)">
       <use xlink:href="#DejaVuSans-34"/>
       <use xlink:href="#DejaVuSans-30" transform="translate(63.623047 0)"/>
       <use xlink:href="#DejaVuSans-30" transform="translate(127.246094 0)"/>
      </g>
     </g>
    </g>
    <g id="ytick_5">
     <g id="line2d_21">
      <path d="M 57.6 63.499242 
L 414.72 63.499242 
" clip-path="url(#p3dac6465dc)" style="fill: none; stroke: #b0b0b0; stroke-width: 0.8; stroke-linecap: square"/>
     </g>
     <g id="line2d_22">
      <g>
       <use xlink:href="#mfae03f7fd1" x="57.6" y="63.499242" style="stroke: #000000; stroke-width: 0.8"/>
      </g>
     </g>
     <g id="text_12">
      <!-- 500 -->
      <g transform="translate(31.5125 67.298461) scale(0.1 -0.1)">
       <use xlink:href="#DejaVuSans-35"/>
       <use xlink:href="#DejaVuSans-30" transform="translate(63.623047 0)"/>
       <use xlink:href="#DejaVuSans-30" transform="translate(127.246094 0)"/>
      </g>
     </g>
    </g>
    <g id="text_13">
     <!-- Pressure (Pa) -->
     <g transform="translate(25.432812 207.217062) rotate(-90) scale(0.1 -0.1)">
      <defs>
       <path id="DejaVuSans-50" d="M 1259 4147 
L 1259 2394 
L 2053 2394 
Q 2494 2394 2734 2622 
Q 2975 2850 2975 3272 
Q 2975 3691 2734 3919 
Q 2494 4147 2053 4147 
L 1259 4147 
z
M 628 4666 
L 2053 4666 
Q 2838 4666 3239 4311 
Q 3641 3956 3641 3272 
Q 3641 2581 3239 2228 
Q 2838 1875 2053 1875 
L 1259 1875 
L 1259 0 
L 628 0 
L 628 4666 
z
" transform="scale(0.015625)"/>
       <path id="DejaVuSans-72" d="M 2631 2963 
Q 2534 3019 2420 3045 
Q 2306 3072 2169 3072 
Q 1681 3072 1420 2755 
Q 1159 2438 1159 1844 
L 1159 0 
L 581 0 
L 581 3500 
L 1159 3500 
L 1159 2956 
Q 1341 3275 1631 3429 
Q 1922 3584 2338 3584 
Q 2397 3584 2469 3576 
Q 2541 3569 2628 3553 
L 2631 2963 
z
" transform="scale(0.015625)"/>
       <path id="DejaVuSans-73" d="M 2834 3397 
L 2834 2853 
Q 2591 2978 2328 3040 
Q 2066 3103 1784 3103 
Q 1356 3103 1142 2972 
Q 928 2841 928 2578 
Q 928 2378 1081 2264 
Q 1234 2150 1697 2047 
L 1894 2003 
Q 2506 1872 2764 1633 
Q 3022 1394 3022 966 
Q 3022 478 2636 193 
Q 2250 -91 1575 -91 
Q 1294 -91 989 -36 
Q 684 19 347 128 
L 347 722 
Q 666 556 975 473 
Q 1284 391 1588 391 
Q 1994 391 2212 530 
Q 2431 669 2431 922 
Q 2431 1156 2273 1281 
Q 2116 1406 1581 1522 
L 1381 1569 
Q 847 1681 609 1914 
Q 372 2147 372 2553 
Q 372 3047 722 3315 
Q 1072 3584 1716 3584 
Q 2034 3584 2315 3537 
Q 2597 3491 2834 3397 
z
" transform="scale(0.015625)"/>
       <path id="DejaVuSans-61" d="M 2194 1759 
Q 1497 1759 1228 1600 
Q 959 1441 959 1056 
Q 959 750 1161 570 
Q 1363 391 1709 391 
Q 2188 391 2477 730 
Q 2766 1069 2766 1631 
L 2766 1759 
L 2194 1759 
z
M 3341 1997 
L 3341 0 
L 2766 0 
L 2766 531 
Q 2569 213 2275 61 
Q 1981 -91 1556 -91 
Q 1019 -91 701 211 
Q 384 513 384 1019 
Q 384 1609 779 1909 
Q 1175 2209 1959 2209 
L 2766 2209 
L 2766 2266 
Q 2766 2663 2505 2880 
Q 2244 3097 1772 3097 
Q 1472 3097 1187 3025 
Q 903 2953 641 2809 
L 641 3341 
Q 956 3463 1253 3523 
Q 1550 3584 1831 3584 
Q 2591 3584 2966 3190 
Q 3341 2797 3341 1997 
z
" transform="scale(0.015625)"/>
      </defs>
      <use xlink:href="#DejaVuSans-50"/>
      <use xlink:href="#DejaVuSans-72" transform="translate(58.552734 0)"/>
      <use xlink:href="#DejaVuSans-65" transform="translate(97.416016 0)"/>
      <use xlink:href="#DejaVuSans-73" transform="translate(158.939453 0)"/>
      <use xlink:href="#DejaVuSans-73" transform="translate(211.039062 0)"/>
      <use xlink:href="#DejaVuSans-75" transform="translate(263.138672 0)"/>
      <use xlink:href="#DejaVuSans-72" transform="translate(326.517578 0)"/>
      <use xlink:href="#DejaVuSans-65" transform="translate(365.380859 0)"/>
      <use xlink:href="#DejaVuSans-20" transform="translate(426.904297 0)"/>
      <use xlink:href="#DejaVuSans-28" transform="translate(458.691406 0)"/>
      <use xlink:href="#DejaVuSans-50" transform="translate(497.705078 0)"/>
      <use xlink:href="#DejaVuSans-61" transform="translate(553.507812 0)"/>
      <use xlink:href="#DejaVuSans-29" transform="translate(614.787109 0)"/>
     </g>
    </g>
   </g>
   <g id="line2d_23">
    <path d="M 73.832727 53.568 
L 76.481424 66.810415 
L 79.130121 78.783009 
L 81.778818 89.660072 
L 84.427514 99.585391 
L 87.076211 108.678648 
L 89.724908 117.040264 
L 92.373605 124.755125 
L 95.022301 131.895475 
L 97.670998 138.523184 
L 100.319695 144.691547 
L 102.968392 150.446719 
L 105.617088 155.82887 
L 108.265785 160.873128 
L 110.914482 165.610344 
L 113.563179 170.067725 
L 116.211875 174.269354 
L 118.860572 178.23663 
L 121.509269 181.988627 
L 124.157966 185.542405 
L 126.806662 188.913269 
L 129.455359 192.114985 
L 132.104056 195.159973 
L 134.752753 198.059468 
L 137.401449 200.823652 
L 140.050146 203.461783 
L 142.698843 205.98229 
L 145.34754 208.392868 
L 147.996236 210.700556 
L 150.644933 212.911803 
L 153.29363 215.032531 
L 155.942327 217.068187 
L 158.591024 219.023789 
L 161.23972 220.903968 
L 163.888417 222.713006 
L 166.537114 224.454864 
L 169.185811 226.133217 
L 171.834507 227.751476 
L 174.483204 229.312811 
L 177.131901 230.820174 
L 179.780598 232.276316 
L 182.429294 233.683804 
L 185.077991 235.045036 
L 187.726688 236.362256 
L 190.375385 237.637565 
L 193.024081 238.872931 
L 195.672778 240.070203 
L 198.321475 241.231114 
L 200.970172 242.357298 
L 203.618868 243.450288 
L 206.267565 244.511532 
L 208.916262 245.542393 
L 211.564959 246.544157 
L 214.213655 247.518039 
L 216.862352 248.465187 
L 219.511049 249.386686 
L 222.159746 250.283566 
L 224.808442 251.156799 
L 227.457139 252.007308 
L 230.105836 252.83597 
L 232.754533 253.643614 
L 235.403229 254.431032 
L 238.051926 255.198972 
L 240.700623 255.94815 
L 243.34932 256.679244 
L 245.998017 257.392902 
L 248.646713 258.089739 
L 251.29541 258.770344 
L 253.944107 259.435277 
L 256.592804 260.085073 
L 259.2415 260.720244 
L 261.890197 261.341277 
L 264.538894 261.94864 
L 267.187591 262.542779 
L 269.836287 263.12412 
L 272.484984 263.693074 
L 275.133681 264.250032 
L 277.782378 264.79537 
L 280.431074 265.329447 
L 283.079771 265.852608 
L 285.728468 266.365185 
L 288.377165 266.867496 
L 291.025861 267.359846 
L 293.674558 267.842529 
L 296.323255 268.315826 
L 298.971952 268.780009 
L 301.620648 269.235338 
L 304.269345 269.682064 
L 306.918042 270.12043 
L 309.566739 270.550666 
L 312.215435 270.972998 
L 314.864132 271.387642 
L 317.512829 271.794804 
L 320.161526 272.194687 
L 322.810223 272.587483 
L 325.458919 272.973379 
L 328.107616 273.352555 
L 330.756313 273.725187 
L 333.40501 274.09144 
L 336.053706 274.451478 
" clip-path="url(#p3dac6465dc)" style="fill: none; stroke-dasharray: 5.55,2.4; stroke-dashoffset: 0; stroke: #0000ff; stroke-width: 1.5"/>
   </g>
   <g id="line2d_24">
    <path d="M 398.487273 295.488 
L 395.334062 295.309422 
L 392.180852 295.127786 
L 389.027641 294.943012 
L 385.874431 294.75502 
L 382.721221 294.563724 
L 379.56801 294.369036 
L 376.4148 294.170865 
L 373.261589 293.969118 
L 370.108379 293.763695 
L 366.955168 293.554496 
L 363.801958 293.341416 
L 360.648748 293.124346 
L 357.495537 292.903172 
L 354.342327 292.677778 
L 351.189116 292.44804 
L 348.035906 292.213833 
L 344.882695 291.975025 
L 341.729485 291.731478 
L 338.576275 291.483051 
L 335.423064 291.229595 
L 332.269854 290.970955 
L 329.116643 290.706972 
L 325.963433 290.437478 
L 322.810223 290.162298 
L 319.657012 289.881251 
L 316.503802 289.594147 
L 313.350591 289.300788 
L 310.197381 289.000967 
L 307.04417 288.694468 
L 303.89096 288.381067 
L 300.73775 288.060526 
L 297.584539 287.7326 
L 294.431329 287.39703 
L 291.278118 287.053546 
L 288.124908 286.701863 
L 284.971697 286.341686 
L 281.818487 285.972703 
L 278.665277 285.594586 
L 275.512066 285.206993 
L 272.358856 284.809563 
L 269.205645 284.401915 
L 266.052435 283.983652 
L 262.899224 283.554353 
L 259.746014 283.113575 
L 256.592804 282.660853 
L 253.439593 282.195692 
L 250.286383 281.717575 
L 247.133172 281.225951 
L 243.979962 280.720241 
L 240.826751 280.19983 
L 237.673541 279.664068 
L 234.520331 279.112265 
L 231.36712 278.543689 
L 228.21391 277.957565 
L 225.060699 277.353067 
L 221.907489 276.729318 
L 218.754278 276.085383 
L 215.601068 275.420265 
L 212.447858 274.732903 
L 209.294647 274.022161 
L 206.141437 273.286827 
L 202.988226 272.5256 
L 199.835016 271.737088 
L 196.681805 270.919799 
L 193.528595 270.072128 
L 190.375385 269.192348 
L 187.222174 268.278599 
L 184.068964 267.328876 
L 180.915753 266.341012 
L 177.762543 265.312661 
L 174.609332 264.241284 
L 171.456122 263.12412 
L 168.302912 261.958173 
L 165.149701 260.740174 
L 161.996491 259.466559 
L 158.84328 258.133429 
L 155.69007 256.736513 
L 152.53686 255.27112 
L 149.383649 253.73209 
L 146.230439 252.113728 
L 143.077228 250.409739 
L 139.924018 248.613142 
L 136.770807 246.716176 
L 133.617597 244.710189 
L 130.464387 242.585505 
L 127.311176 240.331266 
L 124.157966 237.935252 
L 121.004755 235.383652 
L 117.851545 232.660804 
L 114.698334 229.74887 
L 111.545124 226.627443 
L 108.391914 223.273075 
L 105.238703 219.658677 
L 102.085493 215.752797 
L 98.932282 211.518691 
L 95.779072 206.913172 
L 92.625861 201.885128 
L 89.472651 196.373619 
L 86.319441 190.305391 
" clip-path="url(#p3dac6465dc)" style="fill: none; stroke-dasharray: 5.55,2.4; stroke-dashoffset: 0; stroke: #008000; stroke-width: 1.5"/>
   </g>
   <g id="line2d_25">
    <path d="M 86.319441 106.159304 
L 87.15484 108.936952 
L 87.990239 111.642204 
L 88.825637 114.277853 
L 89.661036 116.846553 
L 90.496435 119.350823 
L 91.331834 121.793055 
L 92.167233 124.175527 
L 93.002632 126.500407 
L 93.838031 128.769758 
L 94.67343 130.985544 
L 95.508829 133.149642 
L 96.344228 135.263838 
L 97.179627 137.32984 
L 98.015026 139.349275 
L 98.850425 141.323702 
L 99.685824 143.254608 
L 100.521223 145.143417 
L 101.356622 146.99149 
L 102.192021 148.800131 
L 103.02742 150.570589 
L 103.862819 152.30406 
L 104.698218 154.001692 
L 105.533617 155.664585 
L 106.369016 157.293793 
L 107.204415 158.890331 
L 108.039814 160.45517 
L 108.875213 161.989247 
L 109.710612 163.493459 
L 110.546011 164.96867 
L 111.38141 166.415711 
L 112.216809 167.835381 
L 113.052208 169.228449 
L 113.887607 170.595656 
L 114.723006 171.937715 
L 115.558405 173.255314 
L 116.393804 174.549116 
L 117.229202 175.81976 
L 118.064601 177.067862 
L 118.9 178.294016 
L 119.735399 179.498796 
L 120.570798 180.682757 
L 121.406197 181.846433 
L 122.241596 182.990341 
L 123.076995 184.114981 
L 123.912394 185.220836 
L 124.747793 186.308372 
L 125.583192 187.378041 
L 126.418591 188.430279 
L 127.25399 189.465509 
L 128.089389 190.48414 
L 128.924788 191.486569 
L 129.760187 192.473178 
L 130.595586 193.44434 
L 131.430985 194.400413 
L 132.266384 195.341748 
L 133.101783 196.268682 
L 133.937182 197.181544 
L 134.772581 198.080651 
L 135.60798 198.966312 
L 136.443379 199.838826 
L 137.278778 200.698484 
L 138.114177 201.545568 
L 138.949576 202.380351 
L 139.784975 203.203101 
L 140.620374 204.014074 
L 141.455773 204.813523 
L 142.291172 205.601691 
L 143.126571 206.378815 
L 143.96197 207.145126 
L 144.797369 207.900848 
L 145.632768 208.646198 
L 146.468166 209.381389 
L 147.303565 210.106628 
L 148.138964 210.822114 
L 148.974363 211.528044 
L 149.809762 212.224607 
L 150.645161 212.911989 
L 151.48056 213.59037 
L 152.315959 214.259926 
L 153.151358 214.920827 
L 153.986757 215.573241 
L 154.822156 216.21733 
L 155.657555 216.853252 
L 156.492954 217.481162 
L 157.328353 218.101209 
L 158.163752 218.713542 
L 158.999151 219.318303 
L 159.83455 219.915631 
L 160.669949 220.505663 
L 161.505348 221.088531 
L 162.340747 221.664366 
L 163.176146 222.233294 
L 164.011545 222.795438 
L 164.846944 223.350919 
L 165.682343 223.899854 
L 166.517742 224.44236 
L 167.353141 224.978547 
L 168.18854 225.508526 
L 169.023939 226.032404 
" clip-path="url(#p3dac6465dc)" style="fill: none; stroke: #0000ff; stroke-width: 1.5; stroke-linecap: square"/>
   </g>
   <g id="line2d_26">
    <path d="M 169.023939 226.032404 
L 170.711108 227.759175 
L 172.398277 229.433826 
L 174.085447 231.058497 
L 175.772616 232.635215 
L 177.459786 234.165905 
L 179.146955 235.652396 
L 180.834124 237.096422 
L 182.521294 238.499634 
L 184.208463 239.863601 
L 185.895632 241.189818 
L 187.582802 242.479705 
L 189.269971 243.734618 
L 190.957141 244.955846 
L 192.64431 246.144621 
L 194.331479 247.302117 
L 196.018649 248.429454 
L 197.705818 249.527703 
L 199.392987 250.597885 
L 201.080157 251.640977 
L 202.767326 252.657914 
L 204.454495 253.649588 
L 206.141665 254.616855 
L 207.828834 255.560533 
L 209.516004 256.481405 
L 211.203173 257.380223 
L 212.890342 258.257707 
L 214.577512 259.114546 
L 216.264681 259.951402 
L 217.95185 260.768912 
L 219.63902 261.567684 
L 221.326189 262.348304 
L 223.013359 263.111334 
L 224.700528 263.857314 
L 226.387697 264.586765 
L 228.074867 265.300186 
L 229.762036 265.998057 
L 231.449205 266.680839 
L 233.136375 267.348979 
L 234.823544 268.002905 
L 236.510713 268.643028 
L 238.197883 269.269747 
L 239.885052 269.883444 
L 241.572222 270.484489 
L 243.259391 271.073237 
L 244.94656 271.650031 
L 246.63373 272.215204 
L 248.320899 272.769073 
L 250.008068 273.311949 
L 251.695238 273.844128 
L 253.382407 274.365899 
L 255.069577 274.877539 
L 256.756746 275.379316 
L 258.443915 275.871491 
L 260.131085 276.354314 
L 261.818254 276.828027 
L 263.505423 277.292866 
L 265.192593 277.749057 
L 266.879762 278.19682 
L 268.566932 278.636368 
L 270.254101 279.067906 
L 271.94127 279.491634 
L 273.62844 279.907745 
L 275.315609 280.316426 
L 277.002778 280.717857 
L 278.689948 281.112216 
L 280.377117 281.499671 
L 282.064286 281.880388 
L 283.751456 282.254527 
L 285.438625 282.622244 
L 287.125795 282.983688 
L 288.812964 283.339006 
L 290.500133 283.688341 
L 292.187303 284.031829 
L 293.874472 284.369604 
L 295.561641 284.701797 
L 297.248811 285.028532 
L 298.93598 285.349934 
L 300.62315 285.66612 
L 302.310319 285.977206 
L 303.997488 286.283306 
L 305.684658 286.584527 
L 307.371827 286.880977 
L 309.058996 287.172758 
L 310.746166 287.459971 
L 312.433335 287.742715 
L 314.120504 288.021083 
L 315.807674 288.295169 
L 317.494843 288.565062 
L 319.182013 288.830851 
L 320.869182 289.09262 
L 322.556351 289.350453 
L 324.243521 289.604431 
L 325.93069 289.854632 
L 327.617859 290.101133 
L 329.305029 290.34401 
L 330.992198 290.583334 
L 332.679368 290.819177 
L 334.366537 291.051608 
L 336.053706 291.280696 
" clip-path="url(#p3dac6465dc)" style="fill: none; stroke: #ffa500; stroke-width: 1.5; stroke-linecap: square"/>
   </g>
   <g id="line2d_27">
    <path d="M 336.053706 291.280696 
L 334.256902 291.134554 
L 332.460098 290.98671 
L 330.663294 290.837134 
L 328.866489 290.685796 
L 327.069685 290.532664 
L 325.272881 290.377706 
L 323.476077 290.22089 
L 321.679273 290.062181 
L 319.882468 289.901545 
L 318.085664 289.738947 
L 316.28886 289.574351 
L 314.492056 289.407719 
L 312.695252 289.239014 
L 310.898447 289.068197 
L 309.101643 288.895227 
L 307.304839 288.720065 
L 305.508035 288.542667 
L 303.71123 288.362991 
L 301.914426 288.180992 
L 300.117622 287.996626 
L 298.320818 287.809846 
L 296.524014 287.620604 
L 294.727209 287.42885 
L 292.930405 287.234536 
L 291.133601 287.037609 
L 289.336797 286.838016 
L 287.539993 286.635702 
L 285.743188 286.430612 
L 283.946384 286.222688 
L 282.14958 286.01187 
L 280.352776 285.798099 
L 278.555971 285.581311 
L 276.759167 285.361443 
L 274.962363 285.138427 
L 273.165559 284.912197 
L 271.368755 284.682681 
L 269.57195 284.449808 
L 267.775146 284.213505 
L 265.978342 283.973693 
L 264.181538 283.730295 
L 262.384734 283.48323 
L 260.587929 283.232413 
L 258.791125 282.97776 
L 256.994321 282.719181 
L 255.197517 282.456585 
L 253.400713 282.189877 
L 251.603908 281.91896 
L 249.807104 281.643734 
L 248.0103 281.364095 
L 246.213496 281.079936 
L 244.416691 280.791146 
L 242.619887 280.497612 
L 240.823083 280.199216 
L 239.026279 279.895835 
L 237.229475 279.587344 
L 235.43267 279.273613 
L 233.635866 278.954506 
L 231.839062 278.629885 
L 230.042258 278.299606 
L 228.245454 277.963518 
L 226.448649 277.621468 
L 224.651845 277.273296 
L 222.855041 276.918835 
L 221.058237 276.557914 
L 219.261432 276.190354 
L 217.464628 275.815971 
L 215.667824 275.434573 
L 213.87102 275.045961 
L 212.074216 274.649927 
L 210.277411 274.246259 
L 208.480607 273.834731 
L 206.683803 273.415114 
L 204.886999 272.987165 
L 203.090195 272.550635 
L 201.29339 272.105262 
L 199.496586 271.650776 
L 197.699782 271.186893 
L 195.902978 270.713319 
L 194.106174 270.229747 
L 192.309369 269.735857 
L 190.512565 269.231315 
L 188.715761 268.715774 
L 186.918957 268.188869 
L 185.122152 267.65022 
L 183.325348 267.099431 
L 181.528544 266.536086 
L 179.73174 265.959751 
L 177.934936 265.369971 
L 176.138131 264.766271 
L 174.341327 264.148152 
L 172.544523 263.51509 
L 170.747719 262.866538 
L 168.950915 262.20192 
L 167.15411 261.520631 
L 165.357306 260.822036 
L 163.560502 260.105467 
L 161.763698 259.370222 
L 159.966893 258.615561 
L 158.170089 257.840704 
" clip-path="url(#p3dac6465dc)" style="fill: none; stroke: #008000; stroke-width: 1.5; stroke-linecap: square"/>
   </g>
   <g id="line2d_28">
    <path d="M 158.170089 257.840704 
L 157.444325 257.308149 
L 156.718561 256.76782 
L 155.992797 256.21956 
L 155.267033 255.663208 
L 154.541269 255.098598 
L 153.815504 254.525562 
L 153.08974 253.943924 
L 152.363976 253.353508 
L 151.638212 252.754128 
L 150.912448 252.145599 
L 150.186684 251.527725 
L 149.46092 250.900309 
L 148.735156 250.263147 
L 148.009391 249.61603 
L 147.283627 248.958742 
L 146.557863 248.291063 
L 145.832099 247.612765 
L 145.106335 246.923614 
L 144.380571 246.223371 
L 143.654807 245.511788 
L 142.929043 244.788611 
L 142.203278 244.05358 
L 141.477514 243.306424 
L 140.75175 242.546868 
L 140.025986 241.774627 
L 139.300222 240.989408 
L 138.574458 240.190908 
L 137.848694 239.378817 
L 137.12293 238.552816 
L 136.397165 237.712573 
L 135.671401 236.85775 
L 134.945637 235.987996 
L 134.219873 235.102951 
L 133.494109 234.202241 
L 132.768345 233.285484 
L 132.042581 232.352284 
L 131.316817 231.402233 
L 130.591052 230.434908 
L 129.865288 229.449876 
L 129.139524 228.446688 
L 128.41376 227.42488 
L 127.687996 226.383974 
L 126.962232 225.323475 
L 126.236468 224.242874 
L 125.510703 223.141642 
L 124.784939 222.019233 
L 124.059175 220.875084 
L 123.333411 219.708612 
L 122.607647 218.519213 
L 121.881883 217.306264 
L 121.156119 216.069117 
L 120.430355 214.807105 
L 119.70459 213.519535 
L 118.978826 212.20569 
L 118.253062 210.864828 
L 117.527298 209.496177 
L 116.801534 208.098941 
L 116.07577 206.672291 
L 115.350006 205.215371 
L 114.624242 203.727288 
L 113.898477 202.207121 
L 113.172713 200.653909 
L 112.446949 199.066658 
L 111.721185 197.444332 
L 110.995421 195.785857 
L 110.269657 194.090117 
L 109.543893 192.355951 
L 108.818129 190.58215 
L 108.092364 188.767458 
L 107.3666 186.910569 
L 106.640836 185.010121 
L 105.915072 183.064697 
L 105.189308 181.072821 
L 104.463544 179.032952 
L 103.73778 176.943488 
L 103.012016 174.802754 
L 102.286251 172.609006 
L 101.560487 170.36042 
L 100.834723 168.055095 
L 100.108959 165.691043 
L 99.383195 163.266187 
L 98.657431 160.778356 
L 97.931667 158.225279 
L 97.205902 155.604581 
L 96.480138 152.913773 
L 95.754374 150.150251 
L 95.02861 147.311286 
L 94.302846 144.394016 
L 93.577082 141.395441 
L 92.851318 138.312412 
L 92.125554 135.141623 
L 91.399789 131.879604 
L 90.674025 128.522706 
L 89.948261 125.067092 
L 89.222497 121.508726 
L 88.496733 117.843361 
L 87.770969 114.066522 
L 87.045205 110.173494 
L 86.319441 106.159304 
" clip-path="url(#p3dac6465dc)" style="fill: none; stroke: #ff0000; stroke-width: 1.5; stroke-linecap: square"/>
   </g>
   <g id="patch_3">
    <path d="M 57.6 307.584 
L 57.6 41.472 
" style="fill: none; stroke: #000000; stroke-width: 0.8; stroke-linejoin: miter; stroke-linecap: square"/>
   </g>
   <g id="patch_4">
    <path d="M 414.72 307.584 
L 414.72 41.472 
" style="fill: none; stroke: #000000; stroke-width: 0.8; stroke-linejoin: miter; stroke-linecap: square"/>
   </g>
   <g id="patch_5">
    <path d="M 57.6 307.584 
L 414.72 307.584 
" style="fill: none; stroke: #000000; stroke-width: 0.8; stroke-linejoin: miter; stroke-linecap: square"/>
   </g>
   <g id="patch_6">
    <path d="M 57.6 41.472 
L 414.72 41.472 
" style="fill: none; stroke: #000000; stroke-width: 0.8; stroke-linejoin: miter; stroke-linecap: square"/>
   </g>
   <g id="text_14">
    <!-- Carnot Cycle -->
    <g transform="translate(197.800312 35.472) scale(0.12 -0.12)">
     <defs>
      <path id="DejaVuSans-43" d="M 4122 4306 
L 4122 3641 
Q 3803 3938 3442 4084 
Q 3081 4231 2675 4231 
Q 1875 4231 1450 3742 
Q 1025 3253 1025 2328 
Q 1025 1406 1450 917 
Q 1875 428 2675 428 
Q 3081 428 3442 575 
Q 3803 722 4122 1019 
L 4122 359 
Q 3791 134 3420 21 
Q 3050 -91 2638 -91 
Q 1578 -91 968 557 
Q 359 1206 359 2328 
Q 359 3453 968 4101 
Q 1578 4750 2638 4750 
Q 3056 4750 3426 4639 
Q 3797 4528 4122 4306 
z
" transform="scale(0.015625)"/>
      <path id="DejaVuSans-6e" d="M 3513 2113 
L 3513 0 
L 2938 0 
L 2938 2094 
Q 2938 2591 2744 2837 
Q 2550 3084 2163 3084 
Q 1697 3084 1428 2787 
Q 1159 2491 1159 1978 
L 1159 0 
L 581 0 
L 581 3500 
L 1159 3500 
L 1159 2956 
Q 1366 3272 1645 3428 
Q 1925 3584 2291 3584 
Q 2894 3584 3203 3211 
Q 3513 2838 3513 2113 
z
" transform="scale(0.015625)"/>
      <path id="DejaVuSans-74" d="M 1172 4494 
L 1172 3500 
L 2356 3500 
L 2356 3053 
L 1172 3053 
L 1172 1153 
Q 1172 725 1289 603 
Q 1406 481 1766 481 
L 2356 481 
L 2356 0 
L 1766 0 
Q 1100 0 847 248 
Q 594 497 594 1153 
L 594 3053 
L 172 3053 
L 172 3500 
L 594 3500 
L 594 4494 
L 1172 4494 
z
" transform="scale(0.015625)"/>
      <path id="DejaVuSans-79" d="M 2059 -325 
Q 1816 -950 1584 -1140 
Q 1353 -1331 966 -1331 
L 506 -1331 
L 506 -850 
L 844 -850 
Q 1081 -850 1212 -737 
Q 1344 -625 1503 -206 
L 1606 56 
L 191 3500 
L 800 3500 
L 1894 763 
L 2988 3500 
L 3597 3500 
L 2059 -325 
z
" transform="scale(0.015625)"/>
      <path id="DejaVuSans-63" d="M 3122 3366 
L 3122 2828 
Q 2878 2963 2633 3030 
Q 2388 3097 2138 3097 
Q 1578 3097 1268 2742 
Q 959 2388 959 1747 
Q 959 1106 1268 751 
Q 1578 397 2138 397 
Q 2388 397 2633 464 
Q 2878 531 3122 666 
L 3122 134 
Q 2881 22 2623 -34 
Q 2366 -91 2075 -91 
Q 1284 -91 818 406 
Q 353 903 353 1747 
Q 353 2603 823 3093 
Q 1294 3584 2113 3584 
Q 2378 3584 2631 3529 
Q 2884 3475 3122 3366 
z
" transform="scale(0.015625)"/>
     </defs>
     <use xlink:href="#DejaVuSans-43"/>
     <use xlink:href="#DejaVuSans-61" transform="translate(69.824219 0)"/>
     <use xlink:href="#DejaVuSans-72" transform="translate(131.103516 0)"/>
     <use xlink:href="#DejaVuSans-6e" transform="translate(170.466797 0)"/>
     <use xlink:href="#DejaVuSans-6f" transform="translate(233.845703 0)"/>
     <use xlink:href="#DejaVuSans-74" transform="translate(295.027344 0)"/>
     <use xlink:href="#DejaVuSans-20" transform="translate(334.236328 0)"/>
     <use xlink:href="#DejaVuSans-43" transform="translate(366.023438 0)"/>
     <use xlink:href="#DejaVuSans-79" transform="translate(435.847656 0)"/>
     <use xlink:href="#DejaVuSans-63" transform="translate(495.027344 0)"/>
     <use xlink:href="#DejaVuSans-6c" transform="translate(550.007812 0)"/>
     <use xlink:href="#DejaVuSans-65" transform="translate(577.791016 0)"/>
    </g>
   </g>
   <g id="legend_1">
    <g id="patch_7">
     <path d="M 212.327812 108.1845 
L 407.72 108.1845 
Q 409.72 108.1845 409.72 106.1845 
L 409.72 48.472 
Q 409.72 46.472 407.72 46.472 
L 212.327812 46.472 
Q 210.327812 46.472 210.327812 48.472 
L 210.327812 106.1845 
Q 210.327812 108.1845 212.327812 108.1845 
z
" style="fill: #ffffff; opacity: 0.8; stroke: #cccccc; stroke-linejoin: miter"/>
    </g>
    <g id="line2d_29">
     <path d="M 214.327812 54.570438 
L 224.327812 54.570438 
L 234.327812 54.570438 
" style="fill: none; stroke: #0000ff; stroke-width: 1.5; stroke-linecap: square"/>
    </g>
    <g id="text_15">
     <!-- Isothermal Expansion (A to B) -->
     <g transform="translate(242.327812 58.070438) scale(0.1 -0.1)">
      <defs>
       <path id="DejaVuSans-49" d="M 628 4666 
L 1259 4666 
L 1259 0 
L 628 0 
L 628 4666 
z
" transform="scale(0.015625)"/>
       <path id="DejaVuSans-68" d="M 3513 2113 
L 3513 0 
L 2938 0 
L 2938 2094 
Q 2938 2591 2744 2837 
Q 2550 3084 2163 3084 
Q 1697 3084 1428 2787 
Q 1159 2491 1159 1978 
L 1159 0 
L 581 0 
L 581 4863 
L 1159 4863 
L 1159 2956 
Q 1366 3272 1645 3428 
Q 1925 3584 2291 3584 
Q 2894 3584 3203 3211 
Q 3513 2838 3513 2113 
z
" transform="scale(0.015625)"/>
       <path id="DejaVuSans-45" d="M 628 4666 
L 3578 4666 
L 3578 4134 
L 1259 4134 
L 1259 2753 
L 3481 2753 
L 3481 2222 
L 1259 2222 
L 1259 531 
L 3634 531 
L 3634 0 
L 628 0 
L 628 4666 
z
" transform="scale(0.015625)"/>
       <path id="DejaVuSans-78" d="M 3513 3500 
L 2247 1797 
L 3578 0 
L 2900 0 
L 1881 1375 
L 863 0 
L 184 0 
L 1544 1831 
L 300 3500 
L 978 3500 
L 1906 2253 
L 2834 3500 
L 3513 3500 
z
" transform="scale(0.015625)"/>
       <path id="DejaVuSans-70" d="M 1159 525 
L 1159 -1331 
L 581 -1331 
L 581 3500 
L 1159 3500 
L 1159 2969 
Q 1341 3281 1617 3432 
Q 1894 3584 2278 3584 
Q 2916 3584 3314 3078 
Q 3713 2572 3713 1747 
Q 3713 922 3314 415 
Q 2916 -91 2278 -91 
Q 1894 -91 1617 61 
Q 1341 213 1159 525 
z
M 3116 1747 
Q 3116 2381 2855 2742 
Q 2594 3103 2138 3103 
Q 1681 3103 1420 2742 
Q 1159 2381 1159 1747 
Q 1159 1113 1420 752 
Q 1681 391 2138 391 
Q 2594 391 2855 752 
Q 3116 1113 3116 1747 
z
" transform="scale(0.015625)"/>
       <path id="DejaVuSans-69" d="M 603 3500 
L 1178 3500 
L 1178 0 
L 603 0 
L 603 3500 
z
M 603 4863 
L 1178 4863 
L 1178 4134 
L 603 4134 
L 603 4863 
z
" transform="scale(0.015625)"/>
       <path id="DejaVuSans-41" d="M 2188 4044 
L 1331 1722 
L 3047 1722 
L 2188 4044 
z
M 1831 4666 
L 2547 4666 
L 4325 0 
L 3669 0 
L 3244 1197 
L 1141 1197 
L 716 0 
L 50 0 
L 1831 4666 
z
" transform="scale(0.015625)"/>
       <path id="DejaVuSans-42" d="M 1259 2228 
L 1259 519 
L 2272 519 
Q 2781 519 3026 730 
Q 3272 941 3272 1375 
Q 3272 1813 3026 2020 
Q 2781 2228 2272 2228 
L 1259 2228 
z
M 1259 4147 
L 1259 2741 
L 2194 2741 
Q 2656 2741 2882 2914 
Q 3109 3088 3109 3444 
Q 3109 3797 2882 3972 
Q 2656 4147 2194 4147 
L 1259 4147 
z
M 628 4666 
L 2241 4666 
Q 2963 4666 3353 4366 
Q 3744 4066 3744 3513 
Q 3744 3084 3544 2831 
Q 3344 2578 2956 2516 
Q 3422 2416 3680 2098 
Q 3938 1781 3938 1306 
Q 3938 681 3513 340 
Q 3088 0 2303 0 
L 628 0 
L 628 4666 
z
" transform="scale(0.015625)"/>
      </defs>
      <use xlink:href="#DejaVuSans-49"/>
      <use xlink:href="#DejaVuSans-73" transform="translate(29.492188 0)"/>
      <use xlink:href="#DejaVuSans-6f" transform="translate(81.591797 0)"/>
      <use xlink:href="#DejaVuSans-74" transform="translate(142.773438 0)"/>
      <use xlink:href="#DejaVuSans-68" transform="translate(181.982422 0)"/>
      <use xlink:href="#DejaVuSans-65" transform="translate(245.361328 0)"/>
      <use xlink:href="#DejaVuSans-72" transform="translate(306.884766 0)"/>
      <use xlink:href="#DejaVuSans-6d" transform="translate(346.248047 0)"/>
      <use xlink:href="#DejaVuSans-61" transform="translate(443.660156 0)"/>
      <use xlink:href="#DejaVuSans-6c" transform="translate(504.939453 0)"/>
      <use xlink:href="#DejaVuSans-20" transform="translate(532.722656 0)"/>
      <use xlink:href="#DejaVuSans-45" transform="translate(564.509766 0)"/>
      <use xlink:href="#DejaVuSans-78" transform="translate(627.693359 0)"/>
      <use xlink:href="#DejaVuSans-70" transform="translate(686.873047 0)"/>
      <use xlink:href="#DejaVuSans-61" transform="translate(750.349609 0)"/>
      <use xlink:href="#DejaVuSans-6e" transform="translate(811.628906 0)"/>
      <use xlink:href="#DejaVuSans-73" transform="translate(875.007812 0)"/>
      <use xlink:href="#DejaVuSans-69" transform="translate(927.107422 0)"/>
      <use xlink:href="#DejaVuSans-6f" transform="translate(954.890625 0)"/>
      <use xlink:href="#DejaVuSans-6e" transform="translate(1016.072266 0)"/>
      <use xlink:href="#DejaVuSans-20" transform="translate(1079.451172 0)"/>
      <use xlink:href="#DejaVuSans-28" transform="translate(1111.238281 0)"/>
      <use xlink:href="#DejaVuSans-41" transform="translate(1150.251953 0)"/>
      <use xlink:href="#DejaVuSans-20" transform="translate(1218.660156 0)"/>
      <use xlink:href="#DejaVuSans-74" transform="translate(1250.447266 0)"/>
      <use xlink:href="#DejaVuSans-6f" transform="translate(1289.65625 0)"/>
      <use xlink:href="#DejaVuSans-20" transform="translate(1350.837891 0)"/>
      <use xlink:href="#DejaVuSans-42" transform="translate(1382.625 0)"/>
      <use xlink:href="#DejaVuSans-29" transform="translate(1451.228516 0)"/>
     </g>
    </g>
    <g id="line2d_30">
     <path d="M 214.327812 69.248563 
L 224.327812 69.248563 
L 234.327812 69.248563 
" style="fill: none; stroke: #ffa500; stroke-width: 1.5; stroke-linecap: square"/>
    </g>
    <g id="text_16">
     <!-- Adiabatic Expansion (B to C) -->
     <g transform="translate(242.327812 72.748563) scale(0.1 -0.1)">
      <defs>
       <path id="DejaVuSans-64" d="M 2906 2969 
L 2906 4863 
L 3481 4863 
L 3481 0 
L 2906 0 
L 2906 525 
Q 2725 213 2448 61 
Q 2172 -91 1784 -91 
Q 1150 -91 751 415 
Q 353 922 353 1747 
Q 353 2572 751 3078 
Q 1150 3584 1784 3584 
Q 2172 3584 2448 3432 
Q 2725 3281 2906 2969 
z
M 947 1747 
Q 947 1113 1208 752 
Q 1469 391 1925 391 
Q 2381 391 2643 752 
Q 2906 1113 2906 1747 
Q 2906 2381 2643 2742 
Q 2381 3103 1925 3103 
Q 1469 3103 1208 2742 
Q 947 2381 947 1747 
z
" transform="scale(0.015625)"/>
       <path id="DejaVuSans-62" d="M 3116 1747 
Q 3116 2381 2855 2742 
Q 2594 3103 2138 3103 
Q 1681 3103 1420 2742 
Q 1159 2381 1159 1747 
Q 1159 1113 1420 752 
Q 1681 391 2138 391 
Q 2594 391 2855 752 
Q 3116 1113 3116 1747 
z
M 1159 2969 
Q 1341 3281 1617 3432 
Q 1894 3584 2278 3584 
Q 2916 3584 3314 3078 
Q 3713 2572 3713 1747 
Q 3713 922 3314 415 
Q 2916 -91 2278 -91 
Q 1894 -91 1617 61 
Q 1341 213 1159 525 
L 1159 0 
L 581 0 
L 581 4863 
L 1159 4863 
L 1159 2969 
z
" transform="scale(0.015625)"/>
      </defs>
      <use xlink:href="#DejaVuSans-41"/>
      <use xlink:href="#DejaVuSans-64" transform="translate(66.658203 0)"/>
      <use xlink:href="#DejaVuSans-69" transform="translate(130.134766 0)"/>
      <use xlink:href="#DejaVuSans-61" transform="translate(157.917969 0)"/>
      <use xlink:href="#DejaVuSans-62" transform="translate(219.197266 0)"/>
      <use xlink:href="#DejaVuSans-61" transform="translate(282.673828 0)"/>
      <use xlink:href="#DejaVuSans-74" transform="translate(343.953125 0)"/>
      <use xlink:href="#DejaVuSans-69" transform="translate(383.162109 0)"/>
      <use xlink:href="#DejaVuSans-63" transform="translate(410.945312 0)"/>
      <use xlink:href="#DejaVuSans-20" transform="translate(465.925781 0)"/>
      <use xlink:href="#DejaVuSans-45" transform="translate(497.712891 0)"/>
      <use xlink:href="#DejaVuSans-78" transform="translate(560.896484 0)"/>
      <use xlink:href="#DejaVuSans-70" transform="translate(620.076172 0)"/>
      <use xlink:href="#DejaVuSans-61" transform="translate(683.552734 0)"/>
      <use xlink:href="#DejaVuSans-6e" transform="translate(744.832031 0)"/>
      <use xlink:href="#DejaVuSans-73" transform="translate(808.210938 0)"/>
      <use xlink:href="#DejaVuSans-69" transform="translate(860.310547 0)"/>
      <use xlink:href="#DejaVuSans-6f" transform="translate(888.09375 0)"/>
      <use xlink:href="#DejaVuSans-6e" transform="translate(949.275391 0)"/>
      <use xlink:href="#DejaVuSans-20" transform="translate(1012.654297 0)"/>
      <use xlink:href="#DejaVuSans-28" transform="translate(1044.441406 0)"/>
      <use xlink:href="#DejaVuSans-42" transform="translate(1083.455078 0)"/>
      <use xlink:href="#DejaVuSans-20" transform="translate(1152.058594 0)"/>
      <use xlink:href="#DejaVuSans-74" transform="translate(1183.845703 0)"/>
      <use xlink:href="#DejaVuSans-6f" transform="translate(1223.054688 0)"/>
      <use xlink:href="#DejaVuSans-20" transform="translate(1284.236328 0)"/>
      <use xlink:href="#DejaVuSans-43" transform="translate(1316.023438 0)"/>
      <use xlink:href="#DejaVuSans-29" transform="translate(1385.847656 0)"/>
     </g>
    </g>
    <g id="line2d_31">
     <path d="M 214.327812 83.926688 
L 224.327812 83.926688 
L 234.327812 83.926688 
" style="fill: none; stroke: #008000; stroke-width: 1.5; stroke-linecap: square"/>
    </g>
    <g id="text_17">
     <!-- Isothermal Compression (C to D) -->
     <g transform="translate(242.327812 87.426688) scale(0.1 -0.1)">
      <defs>
       <path id="DejaVuSans-44" d="M 1259 4147 
L 1259 519 
L 2022 519 
Q 2988 519 3436 956 
Q 3884 1394 3884 2338 
Q 3884 3275 3436 3711 
Q 2988 4147 2022 4147 
L 1259 4147 
z
M 628 4666 
L 1925 4666 
Q 3281 4666 3915 4102 
Q 4550 3538 4550 2338 
Q 4550 1131 3912 565 
Q 3275 0 1925 0 
L 628 0 
L 628 4666 
z
" transform="scale(0.015625)"/>
      </defs>
      <use xlink:href="#DejaVuSans-49"/>
      <use xlink:href="#DejaVuSans-73" transform="translate(29.492188 0)"/>
      <use xlink:href="#DejaVuSans-6f" transform="translate(81.591797 0)"/>
      <use xlink:href="#DejaVuSans-74" transform="translate(142.773438 0)"/>
      <use xlink:href="#DejaVuSans-68" transform="translate(181.982422 0)"/>
      <use xlink:href="#DejaVuSans-65" transform="translate(245.361328 0)"/>
      <use xlink:href="#DejaVuSans-72" transform="translate(306.884766 0)"/>
      <use xlink:href="#DejaVuSans-6d" transform="translate(346.248047 0)"/>
      <use xlink:href="#DejaVuSans-61" transform="translate(443.660156 0)"/>
      <use xlink:href="#DejaVuSans-6c" transform="translate(504.939453 0)"/>
      <use xlink:href="#DejaVuSans-20" transform="translate(532.722656 0)"/>
      <use xlink:href="#DejaVuSans-43" transform="translate(564.509766 0)"/>
      <use xlink:href="#DejaVuSans-6f" transform="translate(634.333984 0)"/>
      <use xlink:href="#DejaVuSans-6d" transform="translate(695.515625 0)"/>
      <use xlink:href="#DejaVuSans-70" transform="translate(792.927734 0)"/>
      <use xlink:href="#DejaVuSans-72" transform="translate(856.404297 0)"/>
      <use xlink:href="#DejaVuSans-65" transform="translate(895.267578 0)"/>
      <use xlink:href="#DejaVuSans-73" transform="translate(956.791016 0)"/>
      <use xlink:href="#DejaVuSans-73" transform="translate(1008.890625 0)"/>
      <use xlink:href="#DejaVuSans-69" transform="translate(1060.990234 0)"/>
      <use xlink:href="#DejaVuSans-6f" transform="translate(1088.773438 0)"/>
      <use xlink:href="#DejaVuSans-6e" transform="translate(1149.955078 0)"/>
      <use xlink:href="#DejaVuSans-20" transform="translate(1213.333984 0)"/>
      <use xlink:href="#DejaVuSans-28" transform="translate(1245.121094 0)"/>
      <use xlink:href="#DejaVuSans-43" transform="translate(1284.134766 0)"/>
      <use xlink:href="#DejaVuSans-20" transform="translate(1353.958984 0)"/>
      <use xlink:href="#DejaVuSans-74" transform="translate(1385.746094 0)"/>
      <use xlink:href="#DejaVuSans-6f" transform="translate(1424.955078 0)"/>
      <use xlink:href="#DejaVuSans-20" transform="translate(1486.136719 0)"/>
      <use xlink:href="#DejaVuSans-44" transform="translate(1517.923828 0)"/>
      <use xlink:href="#DejaVuSans-29" transform="translate(1594.925781 0)"/>
     </g>
    </g>
    <g id="line2d_32">
     <path d="M 214.327812 98.604813 
L 224.327812 98.604813 
L 234.327812 98.604813 
" style="fill: none; stroke: #ff0000; stroke-width: 1.5; stroke-linecap: square"/>
    </g>
    <g id="text_18">
     <!-- Adiabatic Compression (D to A) -->
     <g transform="translate(242.327812 102.104813) scale(0.1 -0.1)">
      <use xlink:href="#DejaVuSans-41"/>
      <use xlink:href="#DejaVuSans-64" transform="translate(66.658203 0)"/>
      <use xlink:href="#DejaVuSans-69" transform="translate(130.134766 0)"/>
      <use xlink:href="#DejaVuSans-61" transform="translate(157.917969 0)"/>
      <use xlink:href="#DejaVuSans-62" transform="translate(219.197266 0)"/>
      <use xlink:href="#DejaVuSans-61" transform="translate(282.673828 0)"/>
      <use xlink:href="#DejaVuSans-74" transform="translate(343.953125 0)"/>
      <use xlink:href="#DejaVuSans-69" transform="translate(383.162109 0)"/>
      <use xlink:href="#DejaVuSans-63" transform="translate(410.945312 0)"/>
      <use xlink:href="#DejaVuSans-20" transform="translate(465.925781 0)"/>
      <use xlink:href="#DejaVuSans-43" transform="translate(497.712891 0)"/>
      <use xlink:href="#DejaVuSans-6f" transform="translate(567.537109 0)"/>
      <use xlink:href="#DejaVuSans-6d" transform="translate(628.71875 0)"/>
      <use xlink:href="#DejaVuSans-70" transform="translate(726.130859 0)"/>
      <use xlink:href="#DejaVuSans-72" transform="translate(789.607422 0)"/>
      <use xlink:href="#DejaVuSans-65" transform="translate(828.470703 0)"/>
      <use xlink:href="#DejaVuSans-73" transform="translate(889.994141 0)"/>
      <use xlink:href="#DejaVuSans-73" transform="translate(942.09375 0)"/>
      <use xlink:href="#DejaVuSans-69" transform="translate(994.193359 0)"/>
      <use xlink:href="#DejaVuSans-6f" transform="translate(1021.976562 0)"/>
      <use xlink:href="#DejaVuSans-6e" transform="translate(1083.158203 0)"/>
      <use xlink:href="#DejaVuSans-20" transform="translate(1146.537109 0)"/>
      <use xlink:href="#DejaVuSans-28" transform="translate(1178.324219 0)"/>
      <use xlink:href="#DejaVuSans-44" transform="translate(1217.337891 0)"/>
      <use xlink:href="#DejaVuSans-20" transform="translate(1294.339844 0)"/>
      <use xlink:href="#DejaVuSans-74" transform="translate(1326.126953 0)"/>
      <use xlink:href="#DejaVuSans-6f" transform="translate(1365.335938 0)"/>
      <use xlink:href="#DejaVuSans-20" transform="translate(1426.517578 0)"/>
      <use xlink:href="#DejaVuSans-41" transform="translate(1458.304688 0)"/>
      <use xlink:href="#DejaVuSans-29" transform="translate(1526.712891 0)"/>
     </g>
    </g>
   </g>
  </g>
 </g>
 <defs>
  <clipPath id="p3dac6465dc">
   <rect x="57.6" y="41.472" width="357.12" height="266.112"/>
  </clipPath>
 </defs>
</svg>
